<svg id="Layer_1" data-name="Layer 1" xmlns="http://www.w3.org/2000/svg" viewBox="0 0 140 140"><defs><style>.cls-1{fill:#ef4323;}.cls-2{fill:#fff;}.cls-3{fill:#1e2e5f;}</style></defs><rect class="cls-1" x="-0.08" y="-0.08" width="140" height="140" rx="8"/><path class="cls-2" d="M27.11,79.91c0-2-1.2-2.49-4.54-2.49-4.78,0-8.13,3.45-8.13,9.18s3.35,8.84,8.13,8.84c3.61,0,4.54-.48,4.54-2.49V91.8a15.25,15.25,0,0,1-3.83.48c-2.86,0-3.82-2.57-3.82-5.68s.7-6,3.82-6a17.61,17.61,0,0,1,3.83.48Z"/><path class="cls-2" d="M83,90.9V83.56H84.9c1.5,0,2.12-.56,2.12-1.78a3.82,3.82,0,0,0-.24-1.32H83V78a5.27,5.27,0,0,0-2.33-.48c-1.22,0-1.91.45-1.91,1.67V90.9c0,3.13,1,4.54,4.36,4.54,2.5,0,4-.78,4-2.61A3.7,3.7,0,0,0,87,92a6.59,6.59,0,0,1-2.34.34C83.37,92.33,83,92,83,90.9"/><path class="cls-2" d="M69.41,84.5c0-.67.34-1.24,2-1.24a9.73,9.73,0,0,1,3.35.57,3.47,3.47,0,0,0,.36-1.46c0-1.08-1.34-2.22-3.89-2.22-3.15,0-6.07,1.75-6.07,5a3.92,3.92,0,0,0,2.38,3.69c2,1,4.48,1.19,4.48,2.38,0,.83-.71,1.15-2.15,1.15a19.88,19.88,0,0,1-4.27-.48,4.84,4.84,0,0,0-.35,1.67c0,1.43,2.1,1.91,4.72,1.91,2.39,0,6.12-1.27,6.12-4.86a3.82,3.82,0,0,0-1.89-3.49c-2.22-1.29-4.83-1.3-4.83-2.59"/><path class="cls-2" d="M43.19,86.57c0-4.54-1.9-6.42-6.17-6.42a8.36,8.36,0,0,0-2.51.41V75.32a5.5,5.5,0,0,0-2.39-.48c-1.22,0-1.91.45-1.91,1.67V93.64c0,1.22.69,1.67,1.91,1.67a5.77,5.77,0,0,0,2.39-.48V84a4.76,4.76,0,0,1,2.24-.5c1.46,0,2.14,1,2.14,3.55v6.59c0,1.22.69,1.67,1.91,1.67a5.77,5.77,0,0,0,2.39-.48Z"/><path class="cls-2" d="M94.31,76.42c0,1.22-.86,2-2.47,2s-2.47-.79-2.47-2,.92-2,2.47-2,2.47.78,2.47,2"/><path class="cls-2" d="M92.08,80.28a5.43,5.43,0,0,0-2.42.48V93.64c0,1.22.72,1.67,1.94,1.67A5.91,5.91,0,0,0,94,94.83V82c0-1.23-.72-1.68-1.94-1.68"/><path class="cls-2" d="M52.51,80.15a16.67,16.67,0,0,0-5.71,1.49v12c0,1.22.69,1.67,1.92,1.67a5.72,5.72,0,0,0,2.38-.48V84.21A3.49,3.49,0,0,1,53,83.69a5.87,5.87,0,0,1,1.94.28c.49-.86.91-3.82-2.42-3.82"/><path class="cls-2" d="M102.79,80.15c-3.52,0-5.39,1-4.54,4a14,14,0,0,1,4.45-.72c2.13,0,2.84.65,2.84,2.5a8.28,8.28,0,0,0-2.36-.35c-4.78,0-6.36,1.93-6.36,4.79s2.06,5,6.36,5a12.8,12.8,0,0,0,6.21-1.21c0-.49.08-1.07.12-1.77,0-1.19.12-2.94.12-5.37,0-5-1.82-6.94-6.84-6.94m2.75,11.75c-.25.25-.8.49-2.23.49a1.87,1.87,0,0,1-2.11-1.94,2,2,0,0,1,2.22-2.19,10.66,10.66,0,0,1,2.12.21Z"/><path class="cls-2" d="M62.48,76.42c0,1.22-.86,2-2.47,2s-2.47-.79-2.47-2,.92-2,2.47-2,2.47.78,2.47,2"/><path class="cls-2" d="M60.25,80.28a5.43,5.43,0,0,0-2.42.48V93.64c0,1.22.72,1.67,1.94,1.67a5.91,5.91,0,0,0,2.42-.48V82c0-1.23-.72-1.68-1.94-1.68"/><path class="cls-2" d="M125.77,86.59c0-4.54-2-6.44-6.49-6.44a15.77,15.77,0,0,0-6.49,1.67v12c0,1.22.69,1.67,1.91,1.67a6.09,6.09,0,0,0,1.72-.24,2.92,2.92,0,0,0,.67-.24V84a4.89,4.89,0,0,1,2.19-.47c1.67,0,2.19,1.18,2.19,3.57v6.7c0,1.22.69,1.67,1.91,1.67a6.09,6.09,0,0,0,1.72-.24,2.92,2.92,0,0,0,.67-.24V86.59Z"/><path class="cls-2" d="M47.9,103.38v12.89c0,1,.7,1.43,1.93,1.43a7.34,7.34,0,0,0,2.65-.42v-13.9h2.44c1.87,0,2.68-.56,2.68-1.75a8.94,8.94,0,0,0-.14-1.59h-12c-1.87,0-2.68.94-2.68,2.14a4.2,4.2,0,0,0,.15,1.2Z"/><path class="cls-2" d="M63.75,102.54c-4.06,0-7.25,2.39-7.25,7.65s3.19,7.64,7.25,7.64S71,115.44,71,110.19s-3.19-7.65-7.25-7.65m0,12.19c-1.66,0-3-.72-3-4.54s1.29-4.54,3-4.54c2.07,0,3,.72,3,4.54s-1.37,4.54-3,4.54"/><path class="cls-2" d="M84.23,102.68a6.19,6.19,0,0,0-1.74.24,3.81,3.81,0,0,0-.65.23v11a3.83,3.83,0,0,1-2.15.53c-1.67,0-2.15-1.24-2.15-3.63v-6.75c0-1.22-.69-1.67-1.91-1.67a6.19,6.19,0,0,0-1.74.24,3.81,3.81,0,0,0-.65.23v8.19c0,4.53,1.92,6.49,6.45,6.49a15.76,15.76,0,0,0,6.45-1.43V104.35c0-1.22-.69-1.67-1.91-1.67"/><path class="cls-2" d="M95.47,102.54a16.77,16.77,0,0,0-5.7,1.49v12c0,1.22.69,1.67,1.91,1.67a5.65,5.65,0,0,0,2.39-.48V106.6a3.43,3.43,0,0,1,1.88-.51,5.87,5.87,0,0,1,1.94.28c.49-.87.91-3.83-2.42-3.83"/><path class="cls-2" d="M64.72,54.1c7.32-1.64,15.62-3.51,22.69-3.51A41,41,0,0,1,103,53.42l0-.12a31.67,31.67,0,0,0,.54-5.82,31.26,31.26,0,0,0-9.81-22.8,34.64,34.64,0,0,0-47.28,0A31.45,31.45,0,0,0,37.6,55.24a35.68,35.68,0,0,0,11.62,1.49c3.8,0,9.48-1.28,15.5-2.63"/><path class="cls-2" d="M113.35,64.94c-6.78-7.31-14.68-10.46-25.94-10.46-12.35,0-29.06,6.14-38.22,6.14-7.44-.1-12.39-1.27-20.72-5.26a1.33,1.33,0,0,0-.39-.13c-.12,0-.24.1-.24.19s.16.3.35.49c6.7,7.31,14.65,10.46,25.91,10.46,12.08,0,29.45-6.14,38.45-6.14,7.64,0,12.08,1.24,20.53,5.26a1.19,1.19,0,0,0,.35.13.19.19,0,0,0,.2-.19,1.15,1.15,0,0,0-.28-.49"/><path class="cls-3" d="M75.74,36c-.21-.21-7.64-1.92-7.73-1.51a5.9,5.9,0,0,0,1.35,1.73l6.77.87c.73,0-.32-1-.39-1.09"/><path class="cls-3" d="M86.78,44.77c0-.17-2.41-.45-4.25-1.36-.58-.29-2-3.13-2.2-3.16s-.44.35-.47.5S81.1,43.21,81,43.4c-.37.64-1.65,2.4-1.67,2.51a1.24,1.24,0,0,0,.7.69c.09,0,1.65-1.67,2.16-1.81s3.13.57,4.09.59c.74,0,.51-.53.51-.61"/><path class="cls-3" d="M64.86,36.9c-1.55-.32-3-1.27-4.41-1.51s-2.92-1-3.33-.65c-.21.16.51,1.09.51,1.95s-.71,1.91-.55,2.11c.26.36,2.06.34,3.31-.3s3.7-.41,4.67-.41,1.34-.86-.2-1.19"/><path class="cls-3" d="M70.07,19.38c-16,0-29,12.6-29,28.1a26.94,26.94,0,0,0,1.54,8.89,49.77,49.77,0,0,0,6.57.36,36,36,0,0,0,5.69-.59A12.74,12.74,0,0,1,59,51.75c.67-.42-.48-.78-1.14-1s-1.13.06-1.86-.6,0-2.31,0-2.7S55,46.26,55,46.05a2.42,2.42,0,0,1,.3-.78,1.46,1.46,0,0,1,.06-2.16c.25-.2.18-.36.18-.36a9.79,9.79,0,0,0-.74-1.14,1.9,1.9,0,0,1,0-2,3.63,3.63,0,0,0,.66-3.48c-.62-2.2,1.19-2.52,2.3-4,.19-.26,1.18-.67,1.5-1.21A13.68,13.68,0,0,0,60.6,27.8c0-.6-.63-1-.06-1.32s9.21,1.32,10.2,1.74.54,1.41.9,1.69,1.26.46,1.62.83a8.7,8.7,0,0,1,.55.7c-1.26-.25-3-.53-4.13-.71l-2.36-.53-1,0-.78-.08-2.18-.29c-.81.09-1.46,1.09-.08,1.18,1,.05,9.29,1.63,13.08,2.32a2.36,2.36,0,0,1,.85.26,15,15,0,0,1,1.38,2.52,2.86,2.86,0,0,0,1.68,1.26c.79.1,2.09-1.41,3.31-.9s3.15,4.57,4.14,5,1.65,2.82,2.22,3.24,2-.74,3.06.36-.25,2.47.18,2.94,2.65,2.66,3.34,3.38c.73.15,1.46.32,2.17.51l0-.22A26.58,26.58,0,0,0,99,47.48c0-15.5-13-28.1-29-28.1"/><path class="cls-3" d="M68.25,49.75c-1.26-.15-2.53-.31-3.79-.5a39.56,39.56,0,0,0-6.6-.64c-.31,0-1.36.36-1.29,1,0,.19.44.24,1,.39,1.38.34,2.78,1.08,4,1.08a7.07,7.07,0,0,1,4.16,1,12.42,12.42,0,0,0,3.35.87,1.5,1.5,0,0,1,.7,0c1-.22,2-.42,3-.62A6.8,6.8,0,0,1,71,51.23a4.73,4.73,0,0,0-2.79-1.48"/><path class="cls-3" d="M75.06,48.41c-.53,0-.55,1.3.42,1.46.23,0,3.7.66,6.25,1.06a53.49,53.49,0,0,1,5.68-.34c.56,0,1.11,0,1.66,0-1.26-.25-5.56-.84-5.56-.84s-7.92-1.35-8.45-1.37"/></svg>