<?xml version="1.0" encoding="UTF-8" standalone="no"?>
<svg
   width="1600"
   zoomAndPan="magnify"
   viewBox="0 0 1200 576"
   height="768"
   preserveAspectRatio="xMidYMid"
   version="1.0"
   id="svg472"
   sodipodi:docname="cost-structure.svg"
   inkscape:version="1.2.1 (9c6d41e, 2022-07-14)"
   xmlns:inkscape="http://www.inkscape.org/namespaces/inkscape"
   xmlns:sodipodi="http://sodipodi.sourceforge.net/DTD/sodipodi-0.dtd"
   xmlns="http://www.w3.org/2000/svg"
   xmlns:svg="http://www.w3.org/2000/svg">
  <sodipodi:namedview
     id="namedview474"
     pagecolor="#ffffff"
     bordercolor="#000000"
     borderopacity="0.25"
     inkscape:showpageshadow="2"
     inkscape:pageopacity="0.0"
     inkscape:pagecheckerboard="0"
     inkscape:deskcolor="#d1d1d1"
     showgrid="false"
     inkscape:zoom="0.30729167"
     inkscape:cx="512.54237"
     inkscape:cy="338.44068"
     inkscape:window-width="1309"
     inkscape:window-height="456"
     inkscape:window-x="0"
     inkscape:window-y="38"
     inkscape:window-maximized="0"
     inkscape:current-layer="svg472" />
  <defs
     id="defs16">
    <g
       id="g2" />
    <clipPath
       id="507b748357">
      <path
         d="M 329,115.84375 H 508.76172 V 457.14844 H 329 Z m 0,0"
         clip-rule="nonzero"
         id="path4" />
    </clipPath>
    <clipPath
       id="8d8246bc87">
      <path
         d="M 167.45703,179 H 339 V 457.14844 H 167.45703 Z m 0,0"
         clip-rule="nonzero"
         id="path7" />
    </clipPath>
    <clipPath
       id="767b29310b">
      <path
         d="m 285,115.84375 h 54 V 287 h -54 z m 0,0"
         clip-rule="nonzero"
         id="path10" />
    </clipPath>
    <clipPath
       id="eccb209c56">
      <path
         d="m 338,115.84375 h 1 V 287 h -1 z m 0,0"
         clip-rule="nonzero"
         id="path13" />
    </clipPath>
  </defs>
  <g
     fill="#000000"
     fill-opacity="1"
     id="g24"
     transform="translate(297.76272,-7.3220339)">
    <g
       transform="translate(546.48091,280.57126)"
       id="g22">
      <g
         id="g20">
        <path
           d="m 3.984375,0 h -2.3125 v -12.8125 h 3.3125 l 3.234375,9.421875 h 0.1875 L 11.625,-12.8125 h 3.25 V 0 H 12.46875 V -8.46875 L 12.25,-8.5 9.28125,0 H 7.171875 l -2.96875,-8.5 -0.21875,0.03125 z m 0,0"
           id="path18" />
      </g>
    </g>
  </g>
  <g
     fill="#000000"
     fill-opacity="1"
     id="g32"
     transform="translate(297.76272,-7.3220339)">
    <g
       transform="translate(563.03063,280.57126)"
       id="g30">
      <g
         id="g28">
        <path
           d="m 3.765625,0.1875 c -0.617187,0 -1.152344,-0.1171875 -1.609375,-0.34375 -0.460938,-0.226562 -0.8125,-0.5625 -1.0625,-1 C 0.851562,-1.601562 0.734375,-2.132812 0.734375,-2.75 c 0,-0.570312 0.117187,-1.050781 0.359375,-1.4375 0.25,-0.394531 0.628906,-0.710938 1.140625,-0.953125 0.519531,-0.25 1.195313,-0.441406 2.03125,-0.578125 0.570313,-0.09375 1.007813,-0.195312 1.3125,-0.3125 0.300781,-0.113281 0.503906,-0.238281 0.609375,-0.375 0.101562,-0.144531 0.15625,-0.320312 0.15625,-0.53125 0,-0.3125 -0.109375,-0.546875 -0.328125,-0.703125 -0.210937,-0.164063 -0.570313,-0.25 -1.078125,-0.25 -0.53125,0 -1.042969,0.121094 -1.53125,0.359375 -0.480469,0.242188 -0.902344,0.554688 -1.265625,0.9375 H 1.96875 L 0.953125,-8.125 C 1.441406,-8.664062 2.039062,-9.085938 2.75,-9.390625 c 0.707031,-0.3125 1.476562,-0.46875 2.3125,-0.46875 1.28125,0 2.207031,0.277344 2.78125,0.828125 0.570312,0.542969 0.859375,1.3125 0.859375,2.3125 v 4.1875 c 0,0.4375 0.191406,0.65625 0.578125,0.65625 0.144531,0 0.285156,-0.023438 0.421875,-0.078125 l 0.125,0.03125 L 10,-0.234375 C 9.863281,-0.140625 9.675781,-0.0664062 9.4375,-0.015625 9.195312,0.0351562 8.9375,0.0625 8.65625,0.0625 8.070312,0.0625 7.617188,-0.046875 7.296875,-0.265625 6.972656,-0.484375 6.738281,-0.832031 6.59375,-1.3125 L 6.421875,-1.328125 C 5.941406,-0.316406 5.054688,0.1875 3.765625,0.1875 Z m 0.78125,-1.8125 c 0.550781,0 0.992187,-0.1875 1.328125,-0.5625 0.34375,-0.382812 0.515625,-0.910156 0.515625,-1.578125 V -4.75 L 6.21875,-4.78125 c -0.148438,0.117188 -0.339844,0.214844 -0.578125,0.296875 -0.230469,0.074219 -0.570313,0.148437 -1.015625,0.21875 -0.523438,0.09375 -0.902344,0.25 -1.140625,0.46875 -0.230469,0.210937 -0.34375,0.507813 -0.34375,0.890625 0,0.417969 0.125,0.734375 0.375,0.953125 0.25,0.21875 0.59375,0.328125 1.03125,0.328125 z m 0,0"
           id="path26" />
      </g>
    </g>
  </g>
  <g
     fill="#000000"
     fill-opacity="1"
     id="g40"
     transform="translate(297.76272,-7.3220339)">
    <g
       transform="translate(573.22519,280.57126)"
       id="g38">
      <g
         id="g36">
        <path
           d="M 1.390625,0 V -9.671875 H 3.75 v 1.4375 l 0.1875,0.03125 C 4.164062,-8.734375 4.46875,-9.125 4.84375,-9.375 5.226562,-9.625 5.691406,-9.75 6.234375,-9.75 6.785156,-9.75 7.207031,-9.65625 7.5,-9.46875 L 7.078125,-7.375 6.90625,-7.34375 C 6.738281,-7.40625 6.582031,-7.453125 6.4375,-7.484375 6.289062,-7.515625 6.113281,-7.53125 5.90625,-7.53125 c -0.679688,0 -1.195312,0.242188 -1.546875,0.71875 -0.355469,0.480469 -0.53125,1.246094 -0.53125,2.296875 V 0 Z m 0,0"
           id="path34" />
      </g>
    </g>
  </g>
  <g
     fill="#000000"
     fill-opacity="1"
     id="g48"
     transform="translate(297.76272,-7.3220339)">
    <g
       transform="translate(580.80756,280.57126)"
       id="g46">
      <g
         id="g44">
        <path
           d="m 3.828125,0 h -2.4375 v -13.546875 h 2.4375 V -6.03125 H 4.0625 L 6.859375,-9.671875 H 9.3125 v 0.203125 l -3.28125,4.25 3.65625,5 V 0 H 7.125 L 4.0625,-4.078125 H 3.828125 Z m 0,0"
           id="path42" />
      </g>
    </g>
  </g>
  <g
     fill="#000000"
     fill-opacity="1"
     id="g56"
     transform="translate(297.76272,-7.3220339)">
    <g
       transform="translate(590.51124,280.57126)"
       id="g54">
      <g
         id="g52">
        <path
           d="m 9.5625,-4.28125 -6.21875,0.015625 c 0.070312,0.835937 0.3125,1.445313 0.71875,1.828125 0.40625,0.375 0.960938,0.5625 1.671875,0.5625 0.550781,0 1,-0.101562 1.34375,-0.3125 0.34375,-0.207031 0.625,-0.519531 0.84375,-0.9375 H 8.09375 l 1.625,1.03125 c -0.324219,0.679688 -0.804688,1.230469 -1.4375,1.65625 -0.636719,0.4179688 -1.484375,0.625 -2.546875,0.625 -1,0 -1.867187,-0.1875 -2.59375,-0.5625 -0.730469,-0.382812 -1.292969,-0.953125 -1.6875,-1.703125 -0.386719,-0.75 -0.578125,-1.664063 -0.578125,-2.75 0,-1.101563 0.203125,-2.03125 0.609375,-2.78125 0.414063,-0.75 0.976563,-1.3125 1.6875,-1.6875 0.707031,-0.375 1.503906,-0.5625 2.390625,-0.5625 1.363281,0 2.410156,0.367187 3.140625,1.09375 0.726563,0.730469 1.09375,1.792969 1.09375,3.1875 0,0.511719 -0.023437,0.90625 -0.0625,1.1875 z M 7.46875,-5.859375 C 7.445312,-6.585938 7.273438,-7.117188 6.953125,-7.453125 6.640625,-7.796875 6.175781,-7.96875 5.5625,-7.96875 c -1.230469,0 -1.953125,0.703125 -2.171875,2.109375 z m 0,0"
           id="path50" />
      </g>
    </g>
  </g>
  <g
     fill="#000000"
     fill-opacity="1"
     id="g64"
     transform="translate(297.76272,-7.3220339)">
    <g
       transform="translate(601.02136,280.57126)"
       id="g62">
      <g
         id="g60">
        <path
           d="m 6.671875,-2.3125 0.625,1.796875 C 7.035156,-0.296875 6.707031,-0.125 6.3125,0 5.914062,0.125 5.46875,0.1875 4.96875,0.1875 c -1.054688,0 -1.851562,-0.2851562 -2.390625,-0.859375 -0.542969,-0.570313 -0.8125,-1.398437 -0.8125,-2.484375 v -4.578125 h -1.46875 v -1.9375 h 1.46875 V -11.5625 L 4.1875,-11.953125 v 2.28125 h 2.75 v 1.9375 h -2.75 v 4.40625 c 0,0.480469 0.097656,0.828125 0.296875,1.046875 0.195313,0.21875 0.488281,0.328125 0.875,0.328125 0.425781,0 0.800781,-0.117187 1.125,-0.359375 z m 0,0"
           id="path58" />
      </g>
    </g>
  </g>
  <g
     fill="#000000"
     fill-opacity="1"
     id="g72"
     transform="translate(297.76272,-7.3220339)">
    <g
       transform="translate(608.5336,280.57126)"
       id="g70">
      <g
         id="g68">
        <path
           d="m 2.609375,-10.828125 c -0.4375,0 -0.796875,-0.128906 -1.078125,-0.390625 C 1.257812,-11.488281 1.125,-11.832031 1.125,-12.25 c 0,-0.414062 0.132812,-0.753906 0.40625,-1.015625 0.28125,-0.269531 0.640625,-0.40625 1.078125,-0.40625 0.289063,0 0.546875,0.0625 0.765625,0.1875 0.226562,0.117187 0.40625,0.28125 0.53125,0.5 0.132812,0.210937 0.203125,0.453125 0.203125,0.734375 0,0.273438 -0.070313,0.515625 -0.203125,0.734375 C 3.78125,-11.296875 3.601562,-11.125 3.375,-11 c -0.21875,0.117188 -0.476562,0.171875 -0.765625,0.171875 z M 3.828125,0 h -2.4375 v -9.671875 h 2.4375 z m 0,0"
           id="path66" />
      </g>
    </g>
  </g>
  <g
     fill="#000000"
     fill-opacity="1"
     id="g80"
     transform="translate(297.76272,-7.3220339)">
    <g
       transform="translate(613.74045,280.57126)"
       id="g78">
      <g
         id="g76">
        <path
           d="M 1.390625,0 V -9.671875 H 3.71875 V -8.25 l 0.1875,0.046875 c 0.601562,-1.101563 1.582031,-1.65625 2.9375,-1.65625 1.113281,0 1.929688,0.308594 2.453125,0.921875 0.519531,0.605469 0.78125,1.492188 0.78125,2.65625 V 0 H 7.65625 V -5.984375 C 7.65625,-6.628906 7.523438,-7.09375 7.265625,-7.375 7.003906,-7.65625 6.59375,-7.796875 6.03125,-7.796875 c -0.699219,0 -1.242188,0.226563 -1.625,0.671875 C 4.019531,-6.675781 3.828125,-5.96875 3.828125,-5 v 5 z m 0,0"
           id="path74" />
      </g>
    </g>
  </g>
  <g
     fill="#000000"
     fill-opacity="1"
     id="g88"
     transform="translate(297.76272,-7.3220339)">
    <g
       transform="translate(625.06579,280.57126)"
       id="g86">
      <g
         id="g84">
        <path
           d="M 5.015625,4.109375 C 3.421875,4.109375 2.242188,3.875 1.484375,3.40625 0.722656,2.9375 0.34375,2.285156 0.34375,1.453125 c 0,-0.511719 0.160156,-0.933594 0.484375,-1.265625 0.320313,-0.320312 0.789063,-0.535156 1.40625,-0.640625 v -0.1875 c -0.335937,-0.195313 -0.574219,-0.414063 -0.71875,-0.65625 -0.136719,-0.25 -0.203125,-0.53125 -0.203125,-0.84375 0,-0.78125 0.503906,-1.304687 1.515625,-1.578125 v -0.1875 C 2.304688,-4.195312 1.910156,-4.5625 1.640625,-5 1.378906,-5.445312 1.25,-5.984375 1.25,-6.609375 c 0,-0.644531 0.144531,-1.207031 0.4375,-1.6875 0.300781,-0.488281 0.734375,-0.867187 1.296875,-1.140625 0.570313,-0.28125 1.257813,-0.421875 2.0625,-0.421875 0.800781,0 1.441406,0.140625 1.921875,0.421875 0.300781,-0.425781 0.472656,-0.925781 0.515625,-1.5 l 0.1875,-0.109375 1.75,0.4375 c -0.054687,0.460937 -0.1875,0.84375 -0.40625,1.15625 -0.21875,0.3125 -0.558594,0.59375 -1.015625,0.84375 v 0.1875 c 0.539062,0.480469 0.8125,1.148437 0.8125,2 0,0.605469 -0.152344,1.140625 -0.453125,1.609375 C 8.066406,-4.34375 7.632812,-3.96875 7.0625,-3.6875 6.5,-3.414062 5.828125,-3.28125 5.046875,-3.28125 h -0.375 C 4.441406,-3.300781 4.28125,-3.3125 4.1875,-3.3125 c -0.230469,0 -0.40625,0.0625 -0.53125,0.1875 -0.125,0.117188 -0.1875,0.265625 -0.1875,0.453125 0,0.210937 0.082031,0.371094 0.25,0.484375 C 3.882812,-2.070312 4.125,-2.007812 4.4375,-2 l 2.15625,0.078125 c 2.144531,0.0625 3.21875,0.984375 3.21875,2.765625 0,0.625 -0.164062,1.179688 -0.484375,1.671875 -0.3125,0.488281 -0.828125,0.875 -1.546875,1.15625 -0.710938,0.289063 -1.632812,0.4375 -2.765625,0.4375 z m 0.03125,-9.09375 c 0.457031,0 0.816406,-0.132813 1.078125,-0.40625 0.269531,-0.269531 0.40625,-0.660156 0.40625,-1.171875 0,-0.507812 -0.136719,-0.898438 -0.40625,-1.171875 -0.261719,-0.269531 -0.621094,-0.40625 -1.078125,-0.40625 -0.480469,0 -0.851563,0.136719 -1.109375,0.40625 -0.25,0.273437 -0.375,0.664063 -0.375,1.171875 0,0.511719 0.125,0.902344 0.375,1.171875 0.257812,0.273437 0.628906,0.40625 1.109375,0.40625 z M 5.015625,2.34375 c 0.832031,0 1.4375,-0.121094 1.8125,-0.359375 0.375,-0.230469 0.5625,-0.53125 0.5625,-0.90625 C 7.390625,0.773438 7.289062,0.550781 7.09375,0.40625 6.90625,0.257812 6.601562,0.179688 6.1875,0.171875 L 4.265625,0.09375 c -0.0625,0 -0.125,-0.0078125 -0.1875,-0.015625 C 4.023438,0.0664062 3.972656,0.0625 3.921875,0.0625 c -0.40625,0 -0.71875,0.085938 -0.9375,0.265625 C 2.773438,0.503906 2.671875,0.75 2.671875,1.0625 2.671875,1.46875 2.863281,1.78125 3.25,2 3.644531,2.226562 4.234375,2.34375 5.015625,2.34375 Z m 0,0"
           id="path82" />
      </g>
    </g>
  </g>
  <g
     fill="#000000"
     fill-opacity="1"
     id="g94">
    <g
       transform="translate(635.1201,280.57126)"
       id="g92">
      <g
         id="g90" />
    </g>
  </g>
  <g
     fill="#000000"
     fill-opacity="1"
     id="g102"
     transform="translate(297.76272,-7.3220339)">
    <g
       transform="translate(639.35395,280.57126)"
       id="g100">
      <g
         id="g98">
        <path
           d="m 5.234375,0.1875 c -0.929687,0 -1.742187,-0.15625 -2.4375,-0.46875 -0.6875,-0.320312 -1.226563,-0.773438 -1.609375,-1.359375 -0.375,-0.59375 -0.5625,-1.28125 -0.5625,-2.0625 0,-0.84375 0.207031,-1.539063 0.625,-2.09375 0.425781,-0.5625 1.066406,-1.019531 1.921875,-1.375 L 3.1875,-7.359375 C 2.800781,-7.828125 2.519531,-8.257812 2.34375,-8.65625 c -0.167969,-0.40625 -0.25,-0.847656 -0.25,-1.328125 0,-0.59375 0.140625,-1.113281 0.421875,-1.5625 0.28125,-0.457031 0.6875,-0.8125 1.21875,-1.0625 C 4.273438,-12.867188 4.910156,-13 5.640625,-13 c 0.707031,0 1.3125,0.121094 1.8125,0.359375 0.5,0.230469 0.878906,0.554687 1.140625,0.96875 0.257812,0.417969 0.390625,0.898437 0.390625,1.4375 0,0.730469 -0.21875,1.367187 -0.65625,1.90625 C 7.890625,-7.796875 7.210938,-7.351562 6.296875,-7 l -0.015625,0.1875 2.375,3.125 C 8.789062,-3.988281 8.882812,-4.335938 8.9375,-4.734375 9,-5.128906 9.03125,-5.578125 9.03125,-6.078125 l -0.015625,-0.4375 h 2.0625 c 0,1.792969 -0.355469,3.246094 -1.0625,4.359375 0.144531,0.117188 0.269531,0.199219 0.375,0.25 0.101563,0.042969 0.222656,0.0625 0.359375,0.0625 0.125,0 0.222656,-0.00391 0.296875,-0.015625 0.07031,-0.00781 0.15625,-0.03125 0.25,-0.0625 l 0.140625,0.03125 0.296875,1.765625 c -0.105469,0.0742188 -0.261719,0.12890625 -0.46875,0.171875 -0.210937,0.0390625 -0.4375,0.0625 -0.6875,0.0625 -0.429687,0 -0.804687,-0.0703125 -1.125,-0.203125 C 9.128906,-0.238281 8.820312,-0.457031 8.53125,-0.75 H 8.34375 C 7.625,-0.125 6.585938,0.1875 5.234375,0.1875 Z m 0,-8.40625 C 5.773438,-8.476562 6.164062,-8.75 6.40625,-9.03125 c 0.25,-0.28125 0.375,-0.628906 0.375,-1.046875 0,-0.351563 -0.105469,-0.628906 -0.3125,-0.828125 -0.210938,-0.195312 -0.492188,-0.296875 -0.84375,-0.296875 -0.367188,0 -0.65625,0.105469 -0.875,0.3125 -0.21875,0.210937 -0.328125,0.5 -0.328125,0.875 0,0.28125 0.054687,0.546875 0.171875,0.796875 0.113281,0.242188 0.328125,0.574219 0.640625,1 z m 0.3125,6.3125 c 0.5625,0 1.039063,-0.109375 1.4375,-0.328125 l -2.84375,-3.625 C 3.796875,-5.628906 3.539062,-5.363281 3.375,-5.0625 3.21875,-4.769531 3.140625,-4.414062 3.140625,-4 c 0,0.417969 0.097656,0.789062 0.296875,1.109375 0.195312,0.3125 0.476562,0.558594 0.84375,0.734375 0.363281,0.167969 0.785156,0.25 1.265625,0.25 z m 0,0"
           id="path96" />
      </g>
    </g>
  </g>
  <g
     fill="#000000"
     fill-opacity="1"
     id="g108">
    <g
       transform="translate(651.32795,280.57126)"
       id="g106">
      <g
         id="g104" />
    </g>
  </g>
  <g
     fill="#000000"
     fill-opacity="1"
     id="g116"
     transform="translate(297.76272,-7.3220339)">
    <g
       transform="translate(655.56181,280.57126)"
       id="g114">
      <g
         id="g112">
        <path
           d="M 12.296875,0 H 9.640625 L 8.671875,-2.953125 H 3.765625 L 2.796875,0 H 0.1875 L 4.625,-12.8125 h 3.25 z M 6.09375,-10.140625 4.4375,-5.078125 h 3.53125 l -1.65625,-5.0625 z m 0,0"
           id="path110" />
      </g>
    </g>
  </g>
  <g
     fill="#000000"
     fill-opacity="1"
     id="g124"
     transform="translate(297.76272,-7.3220339)">
    <g
       transform="translate(668.05299,280.57126)"
       id="g122">
      <g
         id="g120">
        <path
           d="m 4.78125,0.1875 c -0.773438,0 -1.449219,-0.18359375 -2.03125,-0.546875 -0.585938,-0.375 -1.042969,-0.9375 -1.375,-1.6875 -0.335938,-0.757813 -0.5,-1.6875 -0.5,-2.78125 0,-1.101563 0.164062,-2.03125 0.5,-2.78125 0.34375,-0.75 0.816406,-1.3125 1.421875,-1.6875 0.601563,-0.375 1.304687,-0.5625 2.109375,-0.5625 0.59375,0 1.109375,0.105469 1.546875,0.3125 0.445313,0.210937 0.820313,0.53125 1.125,0.96875 l 0.1875,-0.03125 v -4.9375 H 10.1875 V 0 H 7.765625 v -1.25 l -0.1875,-0.03125 C 7.304688,-0.832031 6.9375,-0.472656 6.46875,-0.203125 6.007812,0.0546875 5.445312,0.1875 4.78125,0.1875 Z M 5.5625,-1.875 c 0.6875,0 1.226562,-0.242188 1.625,-0.734375 0.394531,-0.488281 0.59375,-1.226563 0.59375,-2.21875 0,-1 -0.199219,-1.742187 -0.59375,-2.234375 -0.398438,-0.488281 -0.9375,-0.734375 -1.625,-0.734375 -0.710938,0 -1.257812,0.242187 -1.640625,0.71875 -0.375,0.480469 -0.5625,1.230469 -0.5625,2.25 0,1.011719 0.1875,1.757813 0.5625,2.234375 C 4.304688,-2.113281 4.851562,-1.875 5.5625,-1.875 Z m 0,0"
           id="path118" />
      </g>
    </g>
  </g>
  <g
     fill="#000000"
     fill-opacity="1"
     id="g132"
     transform="translate(297.76272,-7.3220339)">
    <g
       transform="translate(679.6413,280.57126)"
       id="g130">
      <g
         id="g128">
        <path
           d="M 6.65625,0 H 3.765625 L 0.1875,-9.671875 H 2.71875 L 5.125,-2.78125 h 0.203125 l 2.40625,-6.890625 h 2.484375 z m 0,0"
           id="path126" />
      </g>
    </g>
  </g>
  <g
     fill="#000000"
     fill-opacity="1"
     id="g140"
     transform="translate(297.76272,-7.3220339)">
    <g
       transform="translate(690.03747,280.57126)"
       id="g138">
      <g
         id="g136">
        <path
           d="m 9.5625,-4.28125 -6.21875,0.015625 c 0.070312,0.835937 0.3125,1.445313 0.71875,1.828125 0.40625,0.375 0.960938,0.5625 1.671875,0.5625 0.550781,0 1,-0.101562 1.34375,-0.3125 0.34375,-0.207031 0.625,-0.519531 0.84375,-0.9375 H 8.09375 l 1.625,1.03125 c -0.324219,0.679688 -0.804688,1.230469 -1.4375,1.65625 -0.636719,0.4179688 -1.484375,0.625 -2.546875,0.625 -1,0 -1.867187,-0.1875 -2.59375,-0.5625 -0.730469,-0.382812 -1.292969,-0.953125 -1.6875,-1.703125 -0.386719,-0.75 -0.578125,-1.664063 -0.578125,-2.75 0,-1.101563 0.203125,-2.03125 0.609375,-2.78125 0.414063,-0.75 0.976563,-1.3125 1.6875,-1.6875 0.707031,-0.375 1.503906,-0.5625 2.390625,-0.5625 1.363281,0 2.410156,0.367187 3.140625,1.09375 0.726563,0.730469 1.09375,1.792969 1.09375,3.1875 0,0.511719 -0.023437,0.90625 -0.0625,1.1875 z M 7.46875,-5.859375 C 7.445312,-6.585938 7.273438,-7.117188 6.953125,-7.453125 6.640625,-7.796875 6.175781,-7.96875 5.5625,-7.96875 c -1.230469,0 -1.953125,0.703125 -2.171875,2.109375 z m 0,0"
           id="path134" />
      </g>
    </g>
  </g>
  <g
     fill="#000000"
     fill-opacity="1"
     id="g148"
     transform="translate(297.76272,-7.3220339)">
    <g
       transform="translate(700.54759,280.57126)"
       id="g146">
      <g
         id="g144">
        <path
           d="M 1.390625,0 V -9.671875 H 3.75 v 1.4375 l 0.1875,0.03125 C 4.164062,-8.734375 4.46875,-9.125 4.84375,-9.375 5.226562,-9.625 5.691406,-9.75 6.234375,-9.75 6.785156,-9.75 7.207031,-9.65625 7.5,-9.46875 L 7.078125,-7.375 6.90625,-7.34375 C 6.738281,-7.40625 6.582031,-7.453125 6.4375,-7.484375 6.289062,-7.515625 6.113281,-7.53125 5.90625,-7.53125 c -0.679688,0 -1.195312,0.242188 -1.546875,0.71875 -0.355469,0.480469 -0.53125,1.246094 -0.53125,2.296875 V 0 Z m 0,0"
           id="path142" />
      </g>
    </g>
  </g>
  <g
     fill="#000000"
     fill-opacity="1"
     id="g156"
     transform="translate(297.76272,-7.3220339)">
    <g
       transform="translate(708.12995,280.57126)"
       id="g154">
      <g
         id="g152">
        <path
           d="m 6.671875,-2.3125 0.625,1.796875 C 7.035156,-0.296875 6.707031,-0.125 6.3125,0 5.914062,0.125 5.46875,0.1875 4.96875,0.1875 c -1.054688,0 -1.851562,-0.2851562 -2.390625,-0.859375 -0.542969,-0.570313 -0.8125,-1.398437 -0.8125,-2.484375 v -4.578125 h -1.46875 v -1.9375 h 1.46875 V -11.5625 L 4.1875,-11.953125 v 2.28125 h 2.75 v 1.9375 h -2.75 v 4.40625 c 0,0.480469 0.097656,0.828125 0.296875,1.046875 0.195313,0.21875 0.488281,0.328125 0.875,0.328125 0.425781,0 0.800781,-0.117187 1.125,-0.359375 z m 0,0"
           id="path150" />
      </g>
    </g>
  </g>
  <g
     fill="#000000"
     fill-opacity="1"
     id="g164"
     transform="translate(297.76272,-7.3220339)">
    <g
       transform="translate(715.6422,280.57126)"
       id="g162">
      <g
         id="g160">
        <path
           d="m 2.609375,-10.828125 c -0.4375,0 -0.796875,-0.128906 -1.078125,-0.390625 C 1.257812,-11.488281 1.125,-11.832031 1.125,-12.25 c 0,-0.414062 0.132812,-0.753906 0.40625,-1.015625 0.28125,-0.269531 0.640625,-0.40625 1.078125,-0.40625 0.289063,0 0.546875,0.0625 0.765625,0.1875 0.226562,0.117187 0.40625,0.28125 0.53125,0.5 0.132812,0.210937 0.203125,0.453125 0.203125,0.734375 0,0.273438 -0.070313,0.515625 -0.203125,0.734375 C 3.78125,-11.296875 3.601562,-11.125 3.375,-11 c -0.21875,0.117188 -0.476562,0.171875 -0.765625,0.171875 z M 3.828125,0 h -2.4375 v -9.671875 h 2.4375 z m 0,0"
           id="path158" />
      </g>
    </g>
  </g>
  <g
     fill="#000000"
     fill-opacity="1"
     id="g172"
     transform="translate(297.76272,-7.3220339)">
    <g
       transform="translate(720.84906,280.57126)"
       id="g170">
      <g
         id="g168">
        <path
           d="m 4.515625,0.1875 c -0.65625,0 -1.261719,-0.078125 -1.8125,-0.234375 C 2.160156,-0.203125 1.691406,-0.414062 1.296875,-0.6875 0.910156,-0.957031 0.625,-1.269531 0.4375,-1.625 l 1.34375,-1.453125 h 0.1875 c 0.320312,0.4375 0.703125,0.765625 1.140625,0.984375 0.4375,0.210938 0.914063,0.3125 1.4375,0.3125 0.46875,0 0.820313,-0.082031 1.0625,-0.25 C 5.847656,-2.195312 5.96875,-2.441406 5.96875,-2.765625 5.96875,-3.003906 5.878906,-3.207031 5.703125,-3.375 5.535156,-3.539062 5.257812,-3.671875 4.875,-3.765625 l -1.28125,-0.3125 C 2.632812,-4.304688 1.929688,-4.65625 1.484375,-5.125 c -0.4375,-0.46875 -0.65625,-1.066406 -0.65625,-1.796875 0,-0.59375 0.148437,-1.113281 0.453125,-1.5625 0.3125,-0.445313 0.742188,-0.785156 1.296875,-1.015625 0.5625,-0.238281 1.21875,-0.359375 1.96875,-0.359375 0.863281,0 1.582031,0.132813 2.15625,0.390625 0.570313,0.25 1.019531,0.585938 1.34375,1 L 6.75,-7.0625 H 6.578125 C 6.304688,-7.363281 6,-7.582031 5.65625,-7.71875 5.320312,-7.863281 4.953125,-7.9375 4.546875,-7.9375 c -0.960937,0 -1.4375,0.296875 -1.4375,0.890625 0,0.25 0.085937,0.453125 0.265625,0.609375 0.175781,0.15625 0.488281,0.289062 0.9375,0.390625 L 5.5,-5.78125 c 0.988281,0.210938 1.707031,0.546875 2.15625,1.015625 0.457031,0.460937 0.6875,1.078125 0.6875,1.859375 0,0.617188 -0.15625,1.15625 -0.46875,1.625 -0.304688,0.46875 -0.742188,0.835938 -1.3125,1.09375 -0.574219,0.25 -1.257812,0.375 -2.046875,0.375 z m 0,0"
           id="path166" />
      </g>
    </g>
  </g>
  <g
     fill="#000000"
     fill-opacity="1"
     id="g180"
     transform="translate(297.76272,-7.3220339)">
    <g
       transform="translate(729.76382,280.57126)"
       id="g178">
      <g
         id="g176">
        <path
           d="m 2.609375,-10.828125 c -0.4375,0 -0.796875,-0.128906 -1.078125,-0.390625 C 1.257812,-11.488281 1.125,-11.832031 1.125,-12.25 c 0,-0.414062 0.132812,-0.753906 0.40625,-1.015625 0.28125,-0.269531 0.640625,-0.40625 1.078125,-0.40625 0.289063,0 0.546875,0.0625 0.765625,0.1875 0.226562,0.117187 0.40625,0.28125 0.53125,0.5 0.132812,0.210937 0.203125,0.453125 0.203125,0.734375 0,0.273438 -0.070313,0.515625 -0.203125,0.734375 C 3.78125,-11.296875 3.601562,-11.125 3.375,-11 c -0.21875,0.117188 -0.476562,0.171875 -0.765625,0.171875 z M 3.828125,0 h -2.4375 v -9.671875 h 2.4375 z m 0,0"
           id="path174" />
      </g>
    </g>
  </g>
  <g
     fill="#000000"
     fill-opacity="1"
     id="g188"
     transform="translate(297.76272,-7.3220339)">
    <g
       transform="translate(734.97066,280.57126)"
       id="g186">
      <g
         id="g184">
        <path
           d="M 1.390625,0 V -9.671875 H 3.71875 V -8.25 l 0.1875,0.046875 c 0.601562,-1.101563 1.582031,-1.65625 2.9375,-1.65625 1.113281,0 1.929688,0.308594 2.453125,0.921875 0.519531,0.605469 0.78125,1.492188 0.78125,2.65625 V 0 H 7.65625 V -5.984375 C 7.65625,-6.628906 7.523438,-7.09375 7.265625,-7.375 7.003906,-7.65625 6.59375,-7.796875 6.03125,-7.796875 c -0.699219,0 -1.242188,0.226563 -1.625,0.671875 C 4.019531,-6.675781 3.828125,-5.96875 3.828125,-5 v 5 z m 0,0"
           id="path182" />
      </g>
    </g>
  </g>
  <g
     fill="#000000"
     fill-opacity="1"
     id="g196"
     transform="translate(297.76272,-7.3220339)">
    <g
       transform="translate(746.29599,280.57126)"
       id="g194">
      <g
         id="g192">
        <path
           d="M 5.015625,4.109375 C 3.421875,4.109375 2.242188,3.875 1.484375,3.40625 0.722656,2.9375 0.34375,2.285156 0.34375,1.453125 c 0,-0.511719 0.160156,-0.933594 0.484375,-1.265625 0.320313,-0.320312 0.789063,-0.535156 1.40625,-0.640625 v -0.1875 c -0.335937,-0.195313 -0.574219,-0.414063 -0.71875,-0.65625 -0.136719,-0.25 -0.203125,-0.53125 -0.203125,-0.84375 0,-0.78125 0.503906,-1.304687 1.515625,-1.578125 v -0.1875 C 2.304688,-4.195312 1.910156,-4.5625 1.640625,-5 1.378906,-5.445312 1.25,-5.984375 1.25,-6.609375 c 0,-0.644531 0.144531,-1.207031 0.4375,-1.6875 0.300781,-0.488281 0.734375,-0.867187 1.296875,-1.140625 0.570313,-0.28125 1.257813,-0.421875 2.0625,-0.421875 0.800781,0 1.441406,0.140625 1.921875,0.421875 0.300781,-0.425781 0.472656,-0.925781 0.515625,-1.5 l 0.1875,-0.109375 1.75,0.4375 c -0.054687,0.460937 -0.1875,0.84375 -0.40625,1.15625 -0.21875,0.3125 -0.558594,0.59375 -1.015625,0.84375 v 0.1875 c 0.539062,0.480469 0.8125,1.148437 0.8125,2 0,0.605469 -0.152344,1.140625 -0.453125,1.609375 C 8.066406,-4.34375 7.632812,-3.96875 7.0625,-3.6875 6.5,-3.414062 5.828125,-3.28125 5.046875,-3.28125 h -0.375 C 4.441406,-3.300781 4.28125,-3.3125 4.1875,-3.3125 c -0.230469,0 -0.40625,0.0625 -0.53125,0.1875 -0.125,0.117188 -0.1875,0.265625 -0.1875,0.453125 0,0.210937 0.082031,0.371094 0.25,0.484375 C 3.882812,-2.070312 4.125,-2.007812 4.4375,-2 l 2.15625,0.078125 c 2.144531,0.0625 3.21875,0.984375 3.21875,2.765625 0,0.625 -0.164062,1.179688 -0.484375,1.671875 -0.3125,0.488281 -0.828125,0.875 -1.546875,1.15625 -0.710938,0.289063 -1.632812,0.4375 -2.765625,0.4375 z m 0.03125,-9.09375 c 0.457031,0 0.816406,-0.132813 1.078125,-0.40625 0.269531,-0.269531 0.40625,-0.660156 0.40625,-1.171875 0,-0.507812 -0.136719,-0.898438 -0.40625,-1.171875 -0.261719,-0.269531 -0.621094,-0.40625 -1.078125,-0.40625 -0.480469,0 -0.851563,0.136719 -1.109375,0.40625 -0.25,0.273437 -0.375,0.664063 -0.375,1.171875 0,0.511719 0.125,0.902344 0.375,1.171875 0.257812,0.273437 0.628906,0.40625 1.109375,0.40625 z M 5.015625,2.34375 c 0.832031,0 1.4375,-0.121094 1.8125,-0.359375 0.375,-0.230469 0.5625,-0.53125 0.5625,-0.90625 C 7.390625,0.773438 7.289062,0.550781 7.09375,0.40625 6.90625,0.257812 6.601562,0.179688 6.1875,0.171875 L 4.265625,0.09375 c -0.0625,0 -0.125,-0.0078125 -0.1875,-0.015625 C 4.023438,0.0664062 3.972656,0.0625 3.921875,0.0625 c -0.40625,0 -0.71875,0.085938 -0.9375,0.265625 C 2.773438,0.503906 2.671875,0.75 2.671875,1.0625 2.671875,1.46875 2.863281,1.78125 3.25,2 3.644531,2.226562 4.234375,2.34375 5.015625,2.34375 Z m 0,0"
           id="path190" />
      </g>
    </g>
  </g>
  <g
     fill="#000000"
     fill-opacity="1"
     id="g204"
     transform="translate(297.76272,-7.3220339)">
    <g
       transform="translate(628.77047,305.45812)"
       id="g202">
      <g
         id="g200">
        <path
           d="M 5.34375,0.1875 C 4.0625,0.1875 3.046875,-0.078125 2.296875,-0.609375 1.546875,-1.148438 1.054688,-1.90625 0.828125,-2.875 L 2.75,-3.71875 2.953125,-3.6875 c 0.175781,0.5625 0.453125,0.992188 0.828125,1.28125 0.375,0.28125 0.882812,0.421875 1.53125,0.421875 0.664062,0 1.179688,-0.1875 1.546875,-0.5625 C 7.222656,-2.929688 7.40625,-3.5 7.40625,-4.25 7.40625,-5 7.222656,-5.566406 6.859375,-5.953125 6.503906,-6.335938 6.015625,-6.53125 5.390625,-6.53125 c -0.46875,0 -0.867187,0.105469 -1.1875,0.3125 -0.324219,0.199219 -0.59375,0.5 -0.8125,0.90625 L 1.296875,-5.46875 1.5625,-12.8125 h 7.625 v 2.125 h -5.5 L 3.5625,-7.421875 3.75,-7.375 c 0.300781,-0.394531 0.65625,-0.691406 1.0625,-0.890625 0.414062,-0.207031 0.921875,-0.3125 1.515625,-0.3125 0.726563,0 1.363281,0.167969 1.90625,0.5 0.550781,0.324219 0.972656,0.804687 1.265625,1.4375 0.300781,0.636719 0.453125,1.417969 0.453125,2.34375 0,0.9375 -0.183594,1.746094 -0.546875,2.421875 C 9.050781,-1.207031 8.523438,-0.695312 7.828125,-0.34375 7.140625,0.0078125 6.3125,0.1875 5.34375,0.1875 Z m 0,0"
           id="path198" />
      </g>
    </g>
  </g>
  <g
     fill="#000000"
     fill-opacity="1"
     id="g212"
     transform="translate(297.76272,-7.3220339)">
    <g
       transform="translate(639.56986,305.45812)"
       id="g210">
      <g
         id="g208">
        <path
           d="m 6.265625,0.1875 c -1.054687,0 -1.96875,-0.2265625 -2.75,-0.6875 C 2.742188,-0.96875 2.144531,-1.691406 1.71875,-2.671875 1.289062,-3.660156 1.078125,-4.90625 1.078125,-6.40625 c 0,-1.5 0.210937,-2.738281 0.640625,-3.71875 0.425781,-0.988281 1.023438,-1.710938 1.796875,-2.171875 C 4.296875,-12.765625 5.210938,-13 6.265625,-13 7.316406,-13 8.226562,-12.765625 9,-12.296875 c 0.769531,0.460937 1.367188,1.183594 1.796875,2.171875 0.4375,0.980469 0.65625,2.21875 0.65625,3.71875 0,1.5 -0.21875,2.746094 -0.65625,3.734375 C 10.367188,-1.691406 9.769531,-0.96875 9,-0.5 8.226562,-0.0390625 7.316406,0.1875 6.265625,0.1875 Z m 0,-2.15625 c 0.570313,0 1.050781,-0.132812 1.4375,-0.40625 0.382813,-0.28125 0.675781,-0.75 0.875,-1.40625 0.207031,-0.65625 0.3125,-1.53125 0.3125,-2.625 0,-1.101562 -0.105469,-1.976562 -0.3125,-2.625 -0.199219,-0.65625 -0.492187,-1.125 -0.875,-1.40625 -0.386719,-0.28125 -0.867187,-0.421875 -1.4375,-0.421875 -0.574219,0 -1.054687,0.140625 -1.4375,0.421875 -0.386719,0.28125 -0.683594,0.75 -0.890625,1.40625 -0.210938,0.648438 -0.3125,1.523438 -0.3125,2.625 0,1.09375 0.101562,1.96875 0.3125,2.625 0.207031,0.65625 0.503906,1.125 0.890625,1.40625 0.382813,0.273438 0.863281,0.40625 1.4375,0.40625 z m 0,0"
           id="path206" />
      </g>
    </g>
  </g>
  <g
     fill="#000000"
     fill-opacity="1"
     id="g220"
     transform="translate(297.76272,-7.3220339)">
    <g
       transform="translate(652.09611,305.45812)"
       id="g218">
      <g
         id="g216">
        <path
           d="m 3.671875,-5.859375 c -0.9375,0 -1.679687,-0.289063 -2.21875,-0.875 -0.542969,-0.59375 -0.8125,-1.492187 -0.8125,-2.703125 0,-1.195312 0.269531,-2.085938 0.8125,-2.671875 C 1.992188,-12.703125 2.734375,-13 3.671875,-13 c 0.9375,0 1.671875,0.296875 2.203125,0.890625 0.539062,0.585937 0.8125,1.476563 0.8125,2.671875 0,1.210938 -0.273438,2.109375 -0.8125,2.703125 -0.53125,0.585937 -1.265625,0.875 -2.203125,0.875 z M 4.5625,0 H 2.421875 l -0.03125,-0.1875 8.5625,-12.625 H 13.09375 L 13.125,-12.625 Z M 3.671875,-7.515625 c 0.351563,0 0.617187,-0.140625 0.796875,-0.421875 0.175781,-0.28125 0.265625,-0.78125 0.265625,-1.5 0,-0.707031 -0.089844,-1.203125 -0.265625,-1.484375 -0.179688,-0.28125 -0.445312,-0.421875 -0.796875,-0.421875 -0.242187,0 -0.445313,0.05859 -0.609375,0.171875 -0.15625,0.117187 -0.277344,0.3125 -0.359375,0.59375 -0.074219,0.28125 -0.109375,0.664063 -0.109375,1.140625 0,0.492188 0.035156,0.875 0.109375,1.15625 C 2.785156,-8 2.90625,-7.800781 3.0625,-7.6875 c 0.15625,0.117188 0.359375,0.171875 0.609375,0.171875 z m 8.21875,7.703125 c -0.949219,0 -1.695313,-0.289062 -2.234375,-0.875 C 9.125,-1.28125 8.859375,-2.179688 8.859375,-3.390625 c 0,-1.195313 0.265625,-2.085937 0.796875,-2.671875 0.539062,-0.59375 1.285156,-0.890625 2.234375,-0.890625 0.9375,0 1.671875,0.296875 2.203125,0.890625 0.539062,0.585938 0.8125,1.476562 0.8125,2.671875 0,1.199219 -0.273438,2.09375 -0.8125,2.6875 C 13.5625,-0.109375 12.828125,0.1875 11.890625,0.1875 Z m 0,-1.671875 c 0.238281,0 0.4375,-0.054687 0.59375,-0.171875 0.15625,-0.113281 0.269531,-0.304688 0.34375,-0.578125 0.08203,-0.28125 0.125,-0.664063 0.125,-1.15625 0,-0.488281 -0.04297,-0.867187 -0.125,-1.140625 -0.07422,-0.28125 -0.1875,-0.476562 -0.34375,-0.59375 -0.15625,-0.113281 -0.355469,-0.171875 -0.59375,-0.171875 -0.25,0 -0.453125,0.058594 -0.609375,0.171875 -0.15625,0.117188 -0.277344,0.3125 -0.359375,0.59375 -0.07422,0.273438 -0.109375,0.652344 -0.109375,1.140625 0,0.492187 0.03516,0.875 0.109375,1.15625 0.08203,0.273437 0.203125,0.464844 0.359375,0.578125 0.15625,0.117188 0.359375,0.171875 0.609375,0.171875 z m 0,0"
           id="path214" />
      </g>
    </g>
  </g>
  <g
     fill="#000000"
     fill-opacity="1"
     id="g228"
     transform="translate(297.76272,-7.3220339)">
    <g
       transform="translate(35.931026,375.16993)"
       id="g226">
      <g
         id="g224">
        <path
           d="m 6.28125,-12.8125 c 2.070312,0 3.65625,0.539062 4.75,1.609375 1.101562,1.074219 1.65625,2.671875 1.65625,4.796875 0,2.117188 -0.554688,3.714844 -1.65625,4.796875 C 9.9375,-0.535156 8.351562,0 6.28125,0 H 1.671875 V -12.8125 Z M 6.125,-2.125 c 1.320312,0 2.3125,-0.335938 2.96875,-1.015625 0.65625,-0.675781 0.984375,-1.765625 0.984375,-3.265625 0,-1.5 -0.328125,-2.585938 -0.984375,-3.265625 C 8.4375,-10.347656 7.445312,-10.6875 6.125,-10.6875 H 4.203125 v 8.5625 z m 0,0"
           id="path222" />
      </g>
    </g>
  </g>
  <g
     fill="#000000"
     fill-opacity="1"
     id="g236"
     transform="translate(297.76272,-7.3220339)">
    <g
       transform="translate(49.623111,375.16993)"
       id="g234">
      <g
         id="g232">
        <path
           d="m 9.5625,-4.28125 -6.21875,0.015625 c 0.070312,0.835937 0.3125,1.445313 0.71875,1.828125 0.40625,0.375 0.960938,0.5625 1.671875,0.5625 0.550781,0 1,-0.101562 1.34375,-0.3125 0.34375,-0.207031 0.625,-0.519531 0.84375,-0.9375 H 8.09375 l 1.625,1.03125 c -0.324219,0.679688 -0.804688,1.230469 -1.4375,1.65625 -0.636719,0.4179688 -1.484375,0.625 -2.546875,0.625 -1,0 -1.867187,-0.1875 -2.59375,-0.5625 -0.730469,-0.382812 -1.292969,-0.953125 -1.6875,-1.703125 -0.386719,-0.75 -0.578125,-1.664063 -0.578125,-2.75 0,-1.101563 0.203125,-2.03125 0.609375,-2.78125 0.414063,-0.75 0.976563,-1.3125 1.6875,-1.6875 0.707031,-0.375 1.503906,-0.5625 2.390625,-0.5625 1.363281,0 2.410156,0.367187 3.140625,1.09375 0.726563,0.730469 1.09375,1.792969 1.09375,3.1875 0,0.511719 -0.023437,0.90625 -0.0625,1.1875 z M 7.46875,-5.859375 C 7.445312,-6.585938 7.273438,-7.117188 6.953125,-7.453125 6.640625,-7.796875 6.175781,-7.96875 5.5625,-7.96875 c -1.230469,0 -1.953125,0.703125 -2.171875,2.109375 z m 0,0"
           id="path230" />
      </g>
    </g>
  </g>
  <g
     fill="#000000"
     fill-opacity="1"
     id="g244"
     transform="translate(297.76272,-7.3220339)">
    <g
       transform="translate(60.133237,375.16993)"
       id="g242">
      <g
         id="g240">
        <path
           d="M 6.65625,0 H 3.765625 L 0.1875,-9.671875 H 2.71875 L 5.125,-2.78125 h 0.203125 l 2.40625,-6.890625 h 2.484375 z m 0,0"
           id="path238" />
      </g>
    </g>
  </g>
  <g
     fill="#000000"
     fill-opacity="1"
     id="g252"
     transform="translate(297.76272,-7.3220339)">
    <g
       transform="translate(70.529404,375.16993)"
       id="g250">
      <g
         id="g248">
        <path
           d="m 9.5625,-4.28125 -6.21875,0.015625 c 0.070312,0.835937 0.3125,1.445313 0.71875,1.828125 0.40625,0.375 0.960938,0.5625 1.671875,0.5625 0.550781,0 1,-0.101562 1.34375,-0.3125 0.34375,-0.207031 0.625,-0.519531 0.84375,-0.9375 H 8.09375 l 1.625,1.03125 c -0.324219,0.679688 -0.804688,1.230469 -1.4375,1.65625 -0.636719,0.4179688 -1.484375,0.625 -2.546875,0.625 -1,0 -1.867187,-0.1875 -2.59375,-0.5625 -0.730469,-0.382812 -1.292969,-0.953125 -1.6875,-1.703125 -0.386719,-0.75 -0.578125,-1.664063 -0.578125,-2.75 0,-1.101563 0.203125,-2.03125 0.609375,-2.78125 0.414063,-0.75 0.976563,-1.3125 1.6875,-1.6875 0.707031,-0.375 1.503906,-0.5625 2.390625,-0.5625 1.363281,0 2.410156,0.367187 3.140625,1.09375 0.726563,0.730469 1.09375,1.792969 1.09375,3.1875 0,0.511719 -0.023437,0.90625 -0.0625,1.1875 z M 7.46875,-5.859375 C 7.445312,-6.585938 7.273438,-7.117188 6.953125,-7.453125 6.640625,-7.796875 6.175781,-7.96875 5.5625,-7.96875 c -1.230469,0 -1.953125,0.703125 -2.171875,2.109375 z m 0,0"
           id="path246" />
      </g>
    </g>
  </g>
  <g
     fill="#000000"
     fill-opacity="1"
     id="g260"
     transform="translate(297.76272,-7.3220339)">
    <g
       transform="translate(81.03953,375.16993)"
       id="g258">
      <g
         id="g256">
        <path
           d="m 4.015625,0.1875 c -0.875,0 -1.542969,-0.234375 -2,-0.703125 -0.460937,-0.476563 -0.6875,-1.195313 -0.6875,-2.15625 v -10.875 h 2.4375 v 10.78125 c 0,0.59375 0.242187,0.890625 0.734375,0.890625 0.132812,0 0.28125,-0.023438 0.4375,-0.078125 l 0.125,0.046875 0.21875,1.859375 C 5.144531,0.0234375 4.96875,0.0820312 4.75,0.125 4.53125,0.164062 4.285156,0.1875 4.015625,0.1875 Z m 0,0"
           id="path254" />
      </g>
    </g>
  </g>
  <g
     fill="#000000"
     fill-opacity="1"
     id="g268"
     transform="translate(297.76272,-7.3220339)">
    <g
       transform="translate(86.597009,375.16993)"
       id="g266">
      <g
         id="g264">
        <path
           d="m 5.625,0.1875 c -0.949219,0 -1.78125,-0.19140625 -2.5,-0.578125 -0.71875,-0.394531 -1.277344,-0.96875 -1.671875,-1.71875 -0.386719,-0.75 -0.578125,-1.65625 -0.578125,-2.71875 0,-1.0625 0.191406,-1.96875 0.578125,-2.71875 0.394531,-0.757813 0.953125,-1.332031 1.671875,-1.71875 0.71875,-0.394531 1.550781,-0.59375 2.5,-0.59375 0.945312,0 1.773438,0.199219 2.484375,0.59375 0.71875,0.386719 1.273437,0.960937 1.671875,1.71875 0.394531,0.75 0.59375,1.65625 0.59375,2.71875 0,1.0625 -0.199219,1.96875 -0.59375,2.71875 -0.398438,0.75 -0.953125,1.324219 -1.671875,1.71875 C 7.398438,-0.00390625 6.570312,0.1875 5.625,0.1875 Z m 0,-2.0625 c 1.5,0 2.25,-0.984375 2.25,-2.953125 0,-1.019531 -0.195312,-1.769531 -0.578125,-2.25 -0.386719,-0.476563 -0.945313,-0.71875 -1.671875,-0.71875 -1.511719,0 -2.265625,0.992187 -2.265625,2.96875 0,1.96875 0.753906,2.953125 2.265625,2.953125 z m 0,0"
           id="path262" />
      </g>
    </g>
  </g>
  <g
     fill="#000000"
     fill-opacity="1"
     id="g276"
     transform="translate(297.76272,-7.3220339)">
    <g
       transform="translate(97.834687,375.16993)"
       id="g274">
      <g
         id="g272">
        <path
           d="m 1.390625,3.921875 v -13.59375 h 2.4375 V -8.40625 L 4,-8.375 c 0.289062,-0.488281 0.675781,-0.859375 1.15625,-1.109375 0.476562,-0.25 1.039062,-0.375 1.6875,-0.375 0.769531,0 1.445312,0.1875 2.03125,0.5625 0.582031,0.367187 1.035156,0.921875 1.359375,1.671875 0.320313,0.75 0.484375,1.683594 0.484375,2.796875 0,1.105469 -0.171875,2.03125 -0.515625,2.78125 -0.335937,0.75 -0.808594,1.3125 -1.421875,1.6875 C 8.175781,0.00390625 7.476562,0.1875 6.6875,0.1875 6.082031,0.1875 5.5625,0.0859375 5.125,-0.109375 4.6875,-0.316406 4.3125,-0.632812 4,-1.0625 L 3.828125,-1.03125 V 3.921875 Z M 6,-1.875 c 0.726562,0 1.28125,-0.234375 1.65625,-0.703125 0.375,-0.476563 0.5625,-1.226563 0.5625,-2.25 0,-1.019531 -0.1875,-1.769531 -0.5625,-2.25 C 7.28125,-7.554688 6.726562,-7.796875 6,-7.796875 c -0.679688,0 -1.214844,0.246094 -1.609375,0.734375 -0.398437,0.492188 -0.59375,1.234375 -0.59375,2.234375 0,0.992187 0.195313,1.730469 0.59375,2.21875 C 4.785156,-2.117188 5.320312,-1.875 6,-1.875 Z m 0,0"
           id="path270" />
      </g>
    </g>
  </g>
  <g
     fill="#000000"
     fill-opacity="1"
     id="g284"
     transform="translate(297.76272,-7.3220339)">
    <g
       transform="translate(109.41423,375.16993)"
       id="g282">
      <g
         id="g280">
        <path
           d="M 1.390625,0 V -9.671875 H 3.71875 V -8.375 l 0.1875,0.03125 c 0.320312,-0.507812 0.691406,-0.890625 1.109375,-1.140625 0.425781,-0.25 0.96875,-0.375 1.625,-0.375 0.726563,0 1.316406,0.148437 1.765625,0.4375 0.445312,0.292969 0.769531,0.714844 0.96875,1.265625 h 0.1875 c 0.300781,-0.570312 0.6875,-1 1.15625,-1.28125 0.46875,-0.28125 1.050781,-0.421875 1.75,-0.421875 2.007812,0 3.015625,1.121094 3.015625,3.359375 V 0 h -2.4375 v -6.203125 c 0,-0.5625 -0.109375,-0.96875 -0.328125,-1.21875 -0.21875,-0.25 -0.574219,-0.375 -1.0625,-0.375 -1.335938,0 -2,0.890625 -2,2.671875 V 0 h -2.4375 v -6.203125 c 0,-0.5625 -0.117188,-0.96875 -0.34375,-1.21875 -0.21875,-0.25 -0.574219,-0.375 -1.0625,-0.375 -0.625,0 -1.117188,0.210937 -1.46875,0.625 C 4,-6.753906 3.828125,-6.09375 3.828125,-5.1875 V 0 Z m 0,0"
           id="path278" />
      </g>
    </g>
  </g>
  <g
     fill="#000000"
     fill-opacity="1"
     id="g292"
     transform="translate(297.76272,-7.3220339)">
    <g
       transform="translate(126.13926,375.16993)"
       id="g290">
      <g
         id="g288">
        <path
           d="m 9.5625,-4.28125 -6.21875,0.015625 c 0.070312,0.835937 0.3125,1.445313 0.71875,1.828125 0.40625,0.375 0.960938,0.5625 1.671875,0.5625 0.550781,0 1,-0.101562 1.34375,-0.3125 0.34375,-0.207031 0.625,-0.519531 0.84375,-0.9375 H 8.09375 l 1.625,1.03125 c -0.324219,0.679688 -0.804688,1.230469 -1.4375,1.65625 -0.636719,0.4179688 -1.484375,0.625 -2.546875,0.625 -1,0 -1.867187,-0.1875 -2.59375,-0.5625 -0.730469,-0.382812 -1.292969,-0.953125 -1.6875,-1.703125 -0.386719,-0.75 -0.578125,-1.664063 -0.578125,-2.75 0,-1.101563 0.203125,-2.03125 0.609375,-2.78125 0.414063,-0.75 0.976563,-1.3125 1.6875,-1.6875 0.707031,-0.375 1.503906,-0.5625 2.390625,-0.5625 1.363281,0 2.410156,0.367187 3.140625,1.09375 0.726563,0.730469 1.09375,1.792969 1.09375,3.1875 0,0.511719 -0.023437,0.90625 -0.0625,1.1875 z M 7.46875,-5.859375 C 7.445312,-6.585938 7.273438,-7.117188 6.953125,-7.453125 6.640625,-7.796875 6.175781,-7.96875 5.5625,-7.96875 c -1.230469,0 -1.953125,0.703125 -2.171875,2.109375 z m 0,0"
           id="path286" />
      </g>
    </g>
  </g>
  <g
     fill="#000000"
     fill-opacity="1"
     id="g300"
     transform="translate(297.76272,-7.3220339)">
    <g
       transform="translate(136.64939,375.16993)"
       id="g298">
      <g
         id="g296">
        <path
           d="M 1.390625,0 V -9.671875 H 3.71875 V -8.25 l 0.1875,0.046875 c 0.601562,-1.101563 1.582031,-1.65625 2.9375,-1.65625 1.113281,0 1.929688,0.308594 2.453125,0.921875 0.519531,0.605469 0.78125,1.492188 0.78125,2.65625 V 0 H 7.65625 V -5.984375 C 7.65625,-6.628906 7.523438,-7.09375 7.265625,-7.375 7.003906,-7.65625 6.59375,-7.796875 6.03125,-7.796875 c -0.699219,0 -1.242188,0.226563 -1.625,0.671875 C 4.019531,-6.675781 3.828125,-5.96875 3.828125,-5 v 5 z m 0,0"
           id="path294" />
      </g>
    </g>
  </g>
  <g
     fill="#000000"
     fill-opacity="1"
     id="g308"
     transform="translate(297.76272,-7.3220339)">
    <g
       transform="translate(147.97472,375.16993)"
       id="g306">
      <g
         id="g304">
        <path
           d="m 6.671875,-2.3125 0.625,1.796875 C 7.035156,-0.296875 6.707031,-0.125 6.3125,0 5.914062,0.125 5.46875,0.1875 4.96875,0.1875 c -1.054688,0 -1.851562,-0.2851562 -2.390625,-0.859375 -0.542969,-0.570313 -0.8125,-1.398437 -0.8125,-2.484375 v -4.578125 h -1.46875 v -1.9375 h 1.46875 V -11.5625 L 4.1875,-11.953125 v 2.28125 h 2.75 v 1.9375 h -2.75 v 4.40625 c 0,0.480469 0.097656,0.828125 0.296875,1.046875 0.195313,0.21875 0.488281,0.328125 0.875,0.328125 0.425781,0 0.800781,-0.117187 1.125,-0.359375 z m 0,0"
           id="path302" />
      </g>
    </g>
  </g>
  <g
     fill="#000000"
     fill-opacity="1"
     id="g316"
     transform="translate(297.76272,-7.3220339)">
    <g
       transform="translate(75.724065,400.05678)"
       id="g314">
      <g
         id="g312">
        <path
           d="m 5.21875,0.1875 c -1.367188,0 -2.453125,-0.289062 -3.265625,-0.875 -0.804687,-0.582031 -1.3125,-1.40625 -1.53125,-2.46875 l 1.921875,-0.890625 0.203125,0.03125 c 0.207031,0.710937 0.507813,1.226563 0.90625,1.546875 0.40625,0.324219 0.96875,0.484375 1.6875,0.484375 0.6875,0 1.210937,-0.160156 1.578125,-0.484375 C 7.082031,-2.789062 7.265625,-3.253906 7.265625,-3.859375 7.265625,-4.460938 7.082031,-4.925781 6.71875,-5.25 6.363281,-5.570312 5.835938,-5.734375 5.140625,-5.734375 h -1.9375 v -1.96875 h 1.6875 c 0.570313,0 1.023437,-0.140625 1.359375,-0.421875 0.34375,-0.289062 0.515625,-0.703125 0.515625,-1.234375 0,-0.53125 -0.164063,-0.925781 -0.484375,-1.1875 -0.3125,-0.269531 -0.75,-0.40625 -1.3125,-0.40625 -0.574219,0 -1.085938,0.136719 -1.53125,0.40625 C 3,-10.273438 2.648438,-9.910156 2.390625,-9.453125 L 2.1875,-9.421875 0.84375,-10.96875 C 1.300781,-11.582031 1.878906,-12.070312 2.578125,-12.4375 3.285156,-12.8125 4.128906,-13 5.109375,-13 c 1.34375,0 2.367187,0.28125 3.078125,0.84375 0.707031,0.5625 1.0625,1.351562 1.0625,2.359375 0,0.617187 -0.148438,1.140625 -0.4375,1.578125 -0.28125,0.4375 -0.695312,0.8125 -1.234375,1.125 v 0.1875 c 1.476563,0.523438 2.21875,1.574219 2.21875,3.15625 0,0.792969 -0.171875,1.484375 -0.515625,2.078125 C 8.945312,-1.078125 8.4375,-0.617188 7.75,-0.296875 7.070312,0.0234375 6.226562,0.1875 5.21875,0.1875 Z m 0,0"
           id="path310" />
      </g>
    </g>
  </g>
  <g
     fill="#000000"
     fill-opacity="1"
     id="g324"
     transform="translate(297.76272,-7.3220339)">
    <g
       transform="translate(86.33061,400.05678)"
       id="g322">
      <g
         id="g320">
        <path
           d="M 5.34375,0.1875 C 4.0625,0.1875 3.046875,-0.078125 2.296875,-0.609375 1.546875,-1.148438 1.054688,-1.90625 0.828125,-2.875 L 2.75,-3.71875 2.953125,-3.6875 c 0.175781,0.5625 0.453125,0.992188 0.828125,1.28125 0.375,0.28125 0.882812,0.421875 1.53125,0.421875 0.664062,0 1.179688,-0.1875 1.546875,-0.5625 C 7.222656,-2.929688 7.40625,-3.5 7.40625,-4.25 7.40625,-5 7.222656,-5.566406 6.859375,-5.953125 6.503906,-6.335938 6.015625,-6.53125 5.390625,-6.53125 c -0.46875,0 -0.867187,0.105469 -1.1875,0.3125 -0.324219,0.199219 -0.59375,0.5 -0.8125,0.90625 L 1.296875,-5.46875 1.5625,-12.8125 h 7.625 v 2.125 h -5.5 L 3.5625,-7.421875 3.75,-7.375 c 0.300781,-0.394531 0.65625,-0.691406 1.0625,-0.890625 0.414062,-0.207031 0.921875,-0.3125 1.515625,-0.3125 0.726563,0 1.363281,0.167969 1.90625,0.5 0.550781,0.324219 0.972656,0.804687 1.265625,1.4375 0.300781,0.636719 0.453125,1.417969 0.453125,2.34375 0,0.9375 -0.183594,1.746094 -0.546875,2.421875 C 9.050781,-1.207031 8.523438,-0.695312 7.828125,-0.34375 7.140625,0.0078125 6.3125,0.1875 5.34375,0.1875 Z m 0,0"
           id="path318" />
      </g>
    </g>
  </g>
  <g
     fill="#000000"
     fill-opacity="1"
     id="g332"
     transform="translate(297.76272,-7.3220339)">
    <g
       transform="translate(97.130001,400.05678)"
       id="g330">
      <g
         id="g328">
        <path
           d="m 3.671875,-5.859375 c -0.9375,0 -1.679687,-0.289063 -2.21875,-0.875 -0.542969,-0.59375 -0.8125,-1.492187 -0.8125,-2.703125 0,-1.195312 0.269531,-2.085938 0.8125,-2.671875 C 1.992188,-12.703125 2.734375,-13 3.671875,-13 c 0.9375,0 1.671875,0.296875 2.203125,0.890625 0.539062,0.585937 0.8125,1.476563 0.8125,2.671875 0,1.210938 -0.273438,2.109375 -0.8125,2.703125 -0.53125,0.585937 -1.265625,0.875 -2.203125,0.875 z M 4.5625,0 H 2.421875 l -0.03125,-0.1875 8.5625,-12.625 H 13.09375 L 13.125,-12.625 Z M 3.671875,-7.515625 c 0.351563,0 0.617187,-0.140625 0.796875,-0.421875 0.175781,-0.28125 0.265625,-0.78125 0.265625,-1.5 0,-0.707031 -0.089844,-1.203125 -0.265625,-1.484375 -0.179688,-0.28125 -0.445312,-0.421875 -0.796875,-0.421875 -0.242187,0 -0.445313,0.05859 -0.609375,0.171875 -0.15625,0.117187 -0.277344,0.3125 -0.359375,0.59375 -0.074219,0.28125 -0.109375,0.664063 -0.109375,1.140625 0,0.492188 0.035156,0.875 0.109375,1.15625 C 2.785156,-8 2.90625,-7.800781 3.0625,-7.6875 c 0.15625,0.117188 0.359375,0.171875 0.609375,0.171875 z m 8.21875,7.703125 c -0.949219,0 -1.695313,-0.289062 -2.234375,-0.875 C 9.125,-1.28125 8.859375,-2.179688 8.859375,-3.390625 c 0,-1.195313 0.265625,-2.085937 0.796875,-2.671875 0.539062,-0.59375 1.285156,-0.890625 2.234375,-0.890625 0.9375,0 1.671875,0.296875 2.203125,0.890625 0.539062,0.585938 0.8125,1.476562 0.8125,2.671875 0,1.199219 -0.273438,2.09375 -0.8125,2.6875 C 13.5625,-0.109375 12.828125,0.1875 11.890625,0.1875 Z m 0,-1.671875 c 0.238281,0 0.4375,-0.054687 0.59375,-0.171875 0.15625,-0.113281 0.269531,-0.304688 0.34375,-0.578125 0.08203,-0.28125 0.125,-0.664063 0.125,-1.15625 0,-0.488281 -0.04297,-0.867187 -0.125,-1.140625 -0.07422,-0.28125 -0.1875,-0.476562 -0.34375,-0.59375 -0.15625,-0.113281 -0.355469,-0.171875 -0.59375,-0.171875 -0.25,0 -0.453125,0.058594 -0.609375,0.171875 -0.15625,0.117188 -0.277344,0.3125 -0.359375,0.59375 -0.07422,0.273438 -0.109375,0.652344 -0.109375,1.140625 0,0.492187 0.03516,0.875 0.109375,1.15625 0.08203,0.273437 0.203125,0.464844 0.359375,0.578125 0.15625,0.117188 0.359375,0.171875 0.609375,0.171875 z m 0,0"
           id="path326" />
      </g>
    </g>
  </g>
  <g
     fill="#000000"
     fill-opacity="1"
     id="g340"
     transform="translate(297.76272,-7.3220339)">
    <g
       transform="translate(143.323,111.99529)"
       id="g338">
      <g
         id="g336">
        <path
           d="M 5.6875,0.1875 C 4.789062,0.1875 3.992188,0.078125 3.296875,-0.140625 2.609375,-0.359375 2.035156,-0.644531 1.578125,-1 1.117188,-1.363281 0.765625,-1.757812 0.515625,-2.1875 L 1.90625,-3.890625 H 2.125 c 0.382812,0.574219 0.875,1.03125 1.46875,1.375 C 4.1875,-2.171875 4.882812,-2 5.6875,-2 6.363281,-2 6.875,-2.140625 7.21875,-2.421875 7.5625,-2.710938 7.734375,-3.113281 7.734375,-3.625 7.734375,-3.925781 7.675781,-4.175781 7.5625,-4.375 7.457031,-4.582031 7.273438,-4.757812 7.015625,-4.90625 6.753906,-5.050781 6.40625,-5.175781 5.96875,-5.28125 l -1.640625,-0.375 C 3.171875,-5.925781 2.3125,-6.363281 1.75,-6.96875 1.1875,-7.582031 0.90625,-8.378906 0.90625,-9.359375 c 0,-0.71875 0.175781,-1.351563 0.53125,-1.90625 0.363281,-0.550781 0.890625,-0.976563 1.578125,-1.28125 C 3.710938,-12.847656 4.546875,-13 5.515625,-13 c 0.988281,0 1.832031,0.132812 2.53125,0.390625 0.707031,0.261719 1.300781,0.664063 1.78125,1.203125 l -1.25,1.703125 h -0.21875 c -0.367187,-0.375 -0.78125,-0.65625 -1.25,-0.84375 -0.460937,-0.1875 -0.992187,-0.28125 -1.59375,-0.28125 -0.699219,0 -1.230469,0.125 -1.59375,0.375 -0.355469,0.242187 -0.53125,0.574219 -0.53125,1 0,0.40625 0.125,0.730469 0.375,0.96875 0.25,0.242187 0.6875,0.429687 1.3125,0.5625 l 1.6875,0.34375 c 1.25,0.273437 2.148437,0.71875 2.703125,1.34375 0.5625,0.625 0.84375,1.445313 0.84375,2.453125 0,0.804688 -0.171875,1.5 -0.515625,2.09375 -0.34375,0.59375 -0.867187,1.058594 -1.5625,1.390625 C 7.546875,0.0234375 6.695312,0.1875 5.6875,0.1875 Z m 0,0"
           id="path334" />
      </g>
    </g>
  </g>
  <g
     fill="#000000"
     fill-opacity="1"
     id="g348"
     transform="translate(297.76272,-7.3220339)">
    <g
       transform="translate(154.33277,111.99529)"
       id="g346">
      <g
         id="g344">
        <path
           d="m 9.5625,-4.28125 -6.21875,0.015625 c 0.070312,0.835937 0.3125,1.445313 0.71875,1.828125 0.40625,0.375 0.960938,0.5625 1.671875,0.5625 0.550781,0 1,-0.101562 1.34375,-0.3125 0.34375,-0.207031 0.625,-0.519531 0.84375,-0.9375 H 8.09375 l 1.625,1.03125 c -0.324219,0.679688 -0.804688,1.230469 -1.4375,1.65625 -0.636719,0.4179688 -1.484375,0.625 -2.546875,0.625 -1,0 -1.867187,-0.1875 -2.59375,-0.5625 -0.730469,-0.382812 -1.292969,-0.953125 -1.6875,-1.703125 -0.386719,-0.75 -0.578125,-1.664063 -0.578125,-2.75 0,-1.101563 0.203125,-2.03125 0.609375,-2.78125 0.414063,-0.75 0.976563,-1.3125 1.6875,-1.6875 0.707031,-0.375 1.503906,-0.5625 2.390625,-0.5625 1.363281,0 2.410156,0.367187 3.140625,1.09375 0.726563,0.730469 1.09375,1.792969 1.09375,3.1875 0,0.511719 -0.023437,0.90625 -0.0625,1.1875 z M 7.46875,-5.859375 C 7.445312,-6.585938 7.273438,-7.117188 6.953125,-7.453125 6.640625,-7.796875 6.175781,-7.96875 5.5625,-7.96875 c -1.230469,0 -1.953125,0.703125 -2.171875,2.109375 z m 0,0"
           id="path342" />
      </g>
    </g>
  </g>
  <g
     fill="#000000"
     fill-opacity="1"
     id="g356"
     transform="translate(297.76272,-7.3220339)">
    <g
       transform="translate(164.8429,111.99529)"
       id="g354">
      <g
         id="g352">
        <path
           d="M 1.390625,0 V -9.671875 H 3.75 v 1.4375 l 0.1875,0.03125 C 4.164062,-8.734375 4.46875,-9.125 4.84375,-9.375 5.226562,-9.625 5.691406,-9.75 6.234375,-9.75 6.785156,-9.75 7.207031,-9.65625 7.5,-9.46875 L 7.078125,-7.375 6.90625,-7.34375 C 6.738281,-7.40625 6.582031,-7.453125 6.4375,-7.484375 6.289062,-7.515625 6.113281,-7.53125 5.90625,-7.53125 c -0.679688,0 -1.195312,0.242188 -1.546875,0.71875 -0.355469,0.480469 -0.53125,1.246094 -0.53125,2.296875 V 0 Z m 0,0"
           id="path350" />
      </g>
    </g>
  </g>
  <g
     fill="#000000"
     fill-opacity="1"
     id="g364"
     transform="translate(297.76272,-7.3220339)">
    <g
       transform="translate(172.42526,111.99529)"
       id="g362">
      <g
         id="g360">
        <path
           d="M 6.65625,0 H 3.765625 L 0.1875,-9.671875 H 2.71875 L 5.125,-2.78125 h 0.203125 l 2.40625,-6.890625 h 2.484375 z m 0,0"
           id="path358" />
      </g>
    </g>
  </g>
  <g
     fill="#000000"
     fill-opacity="1"
     id="g372"
     transform="translate(297.76272,-7.3220339)">
    <g
       transform="translate(182.82143,111.99529)"
       id="g370">
      <g
         id="g368">
        <path
           d="m 2.609375,-10.828125 c -0.4375,0 -0.796875,-0.128906 -1.078125,-0.390625 C 1.257812,-11.488281 1.125,-11.832031 1.125,-12.25 c 0,-0.414062 0.132812,-0.753906 0.40625,-1.015625 0.28125,-0.269531 0.640625,-0.40625 1.078125,-0.40625 0.289063,0 0.546875,0.0625 0.765625,0.1875 0.226562,0.117187 0.40625,0.28125 0.53125,0.5 0.132812,0.210937 0.203125,0.453125 0.203125,0.734375 0,0.273438 -0.070313,0.515625 -0.203125,0.734375 C 3.78125,-11.296875 3.601562,-11.125 3.375,-11 c -0.21875,0.117188 -0.476562,0.171875 -0.765625,0.171875 z M 3.828125,0 h -2.4375 v -9.671875 h 2.4375 z m 0,0"
           id="path366" />
      </g>
    </g>
  </g>
  <g
     fill="#000000"
     fill-opacity="1"
     id="g380"
     transform="translate(297.76272,-7.3220339)">
    <g
       transform="translate(188.02828,111.99529)"
       id="g378">
      <g
         id="g376">
        <path
           d="M 5.640625,0.1875 C 4.703125,0.1875 3.875,-0.00390625 3.15625,-0.390625 2.4375,-0.785156 1.875,-1.359375 1.46875,-2.109375 1.070312,-2.867188 0.875,-3.773438 0.875,-4.828125 c 0,-1.0625 0.195312,-1.96875 0.59375,-2.71875 0.40625,-0.757813 0.960938,-1.332031 1.671875,-1.71875 0.71875,-0.394531 1.535156,-0.59375 2.453125,-0.59375 2.039062,0 3.347656,0.742187 3.921875,2.21875 L 7.84375,-6.4375 H 7.65625 C 7.457031,-6.894531 7.195312,-7.234375 6.875,-7.453125 6.5625,-7.679688 6.132812,-7.796875 5.59375,-7.796875 c -0.699219,0 -1.246094,0.246094 -1.640625,0.734375 -0.398437,0.480469 -0.59375,1.226562 -0.59375,2.234375 0,0.992187 0.195313,1.730469 0.59375,2.21875 0.40625,0.492187 0.96875,0.734375 1.6875,0.734375 0.519531,0 0.960937,-0.140625 1.328125,-0.421875 0.363281,-0.28125 0.628906,-0.691406 0.796875,-1.234375 L 7.9375,-3.546875 9.671875,-2.59375 c -0.25,0.8125 -0.710937,1.480469 -1.375,2 -0.65625,0.5234375 -1.542969,0.78125 -2.65625,0.78125 z m 0,0"
           id="path374" />
      </g>
    </g>
  </g>
  <g
     fill="#000000"
     fill-opacity="1"
     id="g388"
     transform="translate(297.76272,-7.3220339)">
    <g
       transform="translate(197.99493,111.99529)"
       id="g386">
      <g
         id="g384">
        <path
           d="m 9.5625,-4.28125 -6.21875,0.015625 c 0.070312,0.835937 0.3125,1.445313 0.71875,1.828125 0.40625,0.375 0.960938,0.5625 1.671875,0.5625 0.550781,0 1,-0.101562 1.34375,-0.3125 0.34375,-0.207031 0.625,-0.519531 0.84375,-0.9375 H 8.09375 l 1.625,1.03125 c -0.324219,0.679688 -0.804688,1.230469 -1.4375,1.65625 -0.636719,0.4179688 -1.484375,0.625 -2.546875,0.625 -1,0 -1.867187,-0.1875 -2.59375,-0.5625 -0.730469,-0.382812 -1.292969,-0.953125 -1.6875,-1.703125 -0.386719,-0.75 -0.578125,-1.664063 -0.578125,-2.75 0,-1.101563 0.203125,-2.03125 0.609375,-2.78125 0.414063,-0.75 0.976563,-1.3125 1.6875,-1.6875 0.707031,-0.375 1.503906,-0.5625 2.390625,-0.5625 1.363281,0 2.410156,0.367187 3.140625,1.09375 0.726563,0.730469 1.09375,1.792969 1.09375,3.1875 0,0.511719 -0.023437,0.90625 -0.0625,1.1875 z M 7.46875,-5.859375 C 7.445312,-6.585938 7.273438,-7.117188 6.953125,-7.453125 6.640625,-7.796875 6.175781,-7.96875 5.5625,-7.96875 c -1.230469,0 -1.953125,0.703125 -2.171875,2.109375 z m 0,0"
           id="path382" />
      </g>
    </g>
  </g>
  <g
     fill="#000000"
     fill-opacity="1"
     id="g396"
     transform="translate(297.76272,-7.3220339)">
    <g
       transform="translate(208.50506,111.99529)"
       id="g394">
      <g
         id="g392">
        <path
           d="m 4.515625,0.1875 c -0.65625,0 -1.261719,-0.078125 -1.8125,-0.234375 C 2.160156,-0.203125 1.691406,-0.414062 1.296875,-0.6875 0.910156,-0.957031 0.625,-1.269531 0.4375,-1.625 l 1.34375,-1.453125 h 0.1875 c 0.320312,0.4375 0.703125,0.765625 1.140625,0.984375 0.4375,0.210938 0.914063,0.3125 1.4375,0.3125 0.46875,0 0.820313,-0.082031 1.0625,-0.25 C 5.847656,-2.195312 5.96875,-2.441406 5.96875,-2.765625 5.96875,-3.003906 5.878906,-3.207031 5.703125,-3.375 5.535156,-3.539062 5.257812,-3.671875 4.875,-3.765625 l -1.28125,-0.3125 C 2.632812,-4.304688 1.929688,-4.65625 1.484375,-5.125 c -0.4375,-0.46875 -0.65625,-1.066406 -0.65625,-1.796875 0,-0.59375 0.148437,-1.113281 0.453125,-1.5625 0.3125,-0.445313 0.742188,-0.785156 1.296875,-1.015625 0.5625,-0.238281 1.21875,-0.359375 1.96875,-0.359375 0.863281,0 1.582031,0.132813 2.15625,0.390625 0.570313,0.25 1.019531,0.585938 1.34375,1 L 6.75,-7.0625 H 6.578125 C 6.304688,-7.363281 6,-7.582031 5.65625,-7.71875 5.320312,-7.863281 4.953125,-7.9375 4.546875,-7.9375 c -0.960937,0 -1.4375,0.296875 -1.4375,0.890625 0,0.25 0.085937,0.453125 0.265625,0.609375 0.175781,0.15625 0.488281,0.289062 0.9375,0.390625 L 5.5,-5.78125 c 0.988281,0.210938 1.707031,0.546875 2.15625,1.015625 0.457031,0.460937 0.6875,1.078125 0.6875,1.859375 0,0.617188 -0.15625,1.15625 -0.46875,1.625 -0.304688,0.46875 -0.742188,0.835938 -1.3125,1.09375 -0.574219,0.25 -1.257812,0.375 -2.046875,0.375 z m 0,0"
           id="path390" />
      </g>
    </g>
  </g>
  <g
     fill="#000000"
     fill-opacity="1"
     id="g404"
     transform="translate(297.76272,-7.3220339)">
    <g
       transform="translate(160.71973,136.88214)"
       id="g402">
      <g
         id="g400">
        <path
           d="m 0.671875,0 v -2.09375 h 3.09375 v -7.984375 L 3.5625,-10.125 C 3.125,-9.914062 2.691406,-9.75 2.265625,-9.625 1.847656,-9.5 1.367188,-9.40625 0.828125,-9.34375 V -11.5 c 1.414063,-0.300781 2.5625,-0.738281 3.4375,-1.3125 H 6.28125 v 10.71875 h 2.75 V 0 Z m 0,0"
           id="path398" />
      </g>
    </g>
  </g>
  <g
     fill="#000000"
     fill-opacity="1"
     id="g412"
     transform="translate(297.76272,-7.3220339)">
    <g
       transform="translate(170.17796,136.88214)"
       id="g410">
      <g
         id="g408">
        <path
           d="m 6.265625,0.1875 c -1.054687,0 -1.96875,-0.2265625 -2.75,-0.6875 C 2.742188,-0.96875 2.144531,-1.691406 1.71875,-2.671875 1.289062,-3.660156 1.078125,-4.90625 1.078125,-6.40625 c 0,-1.5 0.210937,-2.738281 0.640625,-3.71875 0.425781,-0.988281 1.023438,-1.710938 1.796875,-2.171875 C 4.296875,-12.765625 5.210938,-13 6.265625,-13 7.316406,-13 8.226562,-12.765625 9,-12.296875 c 0.769531,0.460937 1.367188,1.183594 1.796875,2.171875 0.4375,0.980469 0.65625,2.21875 0.65625,3.71875 0,1.5 -0.21875,2.746094 -0.65625,3.734375 C 10.367188,-1.691406 9.769531,-0.96875 9,-0.5 8.226562,-0.0390625 7.316406,0.1875 6.265625,0.1875 Z m 0,-2.15625 c 0.570313,0 1.050781,-0.132812 1.4375,-0.40625 0.382813,-0.28125 0.675781,-0.75 0.875,-1.40625 0.207031,-0.65625 0.3125,-1.53125 0.3125,-2.625 0,-1.101562 -0.105469,-1.976562 -0.3125,-2.625 -0.199219,-0.65625 -0.492187,-1.125 -0.875,-1.40625 -0.386719,-0.28125 -0.867187,-0.421875 -1.4375,-0.421875 -0.574219,0 -1.054687,0.140625 -1.4375,0.421875 -0.386719,0.28125 -0.683594,0.75 -0.890625,1.40625 -0.210938,0.648438 -0.3125,1.523438 -0.3125,2.625 0,1.09375 0.101562,1.96875 0.3125,2.625 0.207031,0.65625 0.503906,1.125 0.890625,1.40625 0.382813,0.273438 0.863281,0.40625 1.4375,0.40625 z m 0,0"
           id="path406" />
      </g>
    </g>
  </g>
  <g
     fill="#000000"
     fill-opacity="1"
     id="g420"
     transform="translate(297.76272,-7.3220339)">
    <g
       transform="translate(182.70421,136.88214)"
       id="g418">
      <g
         id="g416">
        <path
           d="m 3.671875,-5.859375 c -0.9375,0 -1.679687,-0.289063 -2.21875,-0.875 -0.542969,-0.59375 -0.8125,-1.492187 -0.8125,-2.703125 0,-1.195312 0.269531,-2.085938 0.8125,-2.671875 C 1.992188,-12.703125 2.734375,-13 3.671875,-13 c 0.9375,0 1.671875,0.296875 2.203125,0.890625 0.539062,0.585937 0.8125,1.476563 0.8125,2.671875 0,1.210938 -0.273438,2.109375 -0.8125,2.703125 -0.53125,0.585937 -1.265625,0.875 -2.203125,0.875 z M 4.5625,0 H 2.421875 l -0.03125,-0.1875 8.5625,-12.625 H 13.09375 L 13.125,-12.625 Z M 3.671875,-7.515625 c 0.351563,0 0.617187,-0.140625 0.796875,-0.421875 0.175781,-0.28125 0.265625,-0.78125 0.265625,-1.5 0,-0.707031 -0.089844,-1.203125 -0.265625,-1.484375 -0.179688,-0.28125 -0.445312,-0.421875 -0.796875,-0.421875 -0.242187,0 -0.445313,0.05859 -0.609375,0.171875 -0.15625,0.117187 -0.277344,0.3125 -0.359375,0.59375 -0.074219,0.28125 -0.109375,0.664063 -0.109375,1.140625 0,0.492188 0.035156,0.875 0.109375,1.15625 C 2.785156,-8 2.90625,-7.800781 3.0625,-7.6875 c 0.15625,0.117188 0.359375,0.171875 0.609375,0.171875 z m 8.21875,7.703125 c -0.949219,0 -1.695313,-0.289062 -2.234375,-0.875 C 9.125,-1.28125 8.859375,-2.179688 8.859375,-3.390625 c 0,-1.195313 0.265625,-2.085937 0.796875,-2.671875 0.539062,-0.59375 1.285156,-0.890625 2.234375,-0.890625 0.9375,0 1.671875,0.296875 2.203125,0.890625 0.539062,0.585938 0.8125,1.476562 0.8125,2.671875 0,1.199219 -0.273438,2.09375 -0.8125,2.6875 C 13.5625,-0.109375 12.828125,0.1875 11.890625,0.1875 Z m 0,-1.671875 c 0.238281,0 0.4375,-0.054687 0.59375,-0.171875 0.15625,-0.113281 0.269531,-0.304688 0.34375,-0.578125 0.08203,-0.28125 0.125,-0.664063 0.125,-1.15625 0,-0.488281 -0.04297,-0.867187 -0.125,-1.140625 -0.07422,-0.28125 -0.1875,-0.476562 -0.34375,-0.59375 -0.15625,-0.113281 -0.355469,-0.171875 -0.59375,-0.171875 -0.25,0 -0.453125,0.058594 -0.609375,0.171875 -0.15625,0.117188 -0.277344,0.3125 -0.359375,0.59375 -0.07422,0.273438 -0.109375,0.652344 -0.109375,1.140625 0,0.492187 0.03516,0.875 0.109375,1.15625 0.08203,0.273437 0.203125,0.464844 0.359375,0.578125 0.15625,0.117188 0.359375,0.171875 0.609375,0.171875 z m 0,0"
           id="path414" />
      </g>
    </g>
  </g>
  <g
     fill="#000000"
     fill-opacity="1"
     id="g428"
     transform="translate(297.76272,-7.3220339)">
    <g
       transform="translate(292.5882,74.765302)"
       id="g426">
      <g
         id="g424">
        <path
           d="M 10.1875,3.1875 C 9.0625,3.1875 8.125,2.914062 7.375,2.375 6.632812,1.832031 6.132812,1.078125 5.875,0.109375 4.894531,-0.0351562 4.039062,-0.367188 3.3125,-0.890625 2.59375,-1.410156 2.03125,-2.128906 1.625,-3.046875 1.21875,-3.972656 1.015625,-5.09375 1.015625,-6.40625 c 0,-1.46875 0.25,-2.691406 0.75,-3.671875 C 2.273438,-11.066406 2.976562,-11.800781 3.875,-12.28125 4.769531,-12.757812 5.804688,-13 6.984375,-13 c 1.175781,0 2.210937,0.242188 3.109375,0.71875 0.894531,0.46875 1.59375,1.199219 2.09375,2.1875 0.507812,0.992188 0.765625,2.21875 0.765625,3.6875 0,1.917969 -0.414063,3.390625 -1.234375,4.421875 -0.824219,1.023437 -1.980469,1.65625 -3.46875,1.90625 L 8.21875,0.09375 c 0.175781,0.3125 0.441406,0.550781 0.796875,0.71875 0.363281,0.164062 0.785156,0.25 1.265625,0.25 0.382812,0 0.734375,-0.054688 1.046875,-0.15625 L 11.5,0.953125 l 0.359375,1.96875 c -0.1875,0.070313 -0.4375,0.132813 -0.75,0.1875 C 10.796875,3.160156 10.488281,3.1875 10.1875,3.1875 Z M 6.984375,-2.015625 c 1.082031,0 1.910156,-0.347656 2.484375,-1.046875 0.570312,-0.695312 0.859375,-1.8125 0.859375,-3.34375 0,-1.53125 -0.289063,-2.644531 -0.859375,-3.34375 -0.574219,-0.707031 -1.402344,-1.0625 -2.484375,-1.0625 -1.09375,0 -1.929687,0.355469 -2.5,1.0625 C 3.910156,-9.050781 3.625,-7.9375 3.625,-6.40625 c 0,1.53125 0.285156,2.648438 0.859375,3.34375 0.570313,0.699219 1.40625,1.046875 2.5,1.046875 z m 0,0"
           id="path422" />
      </g>
    </g>
  </g>
  <g
     fill="#000000"
     fill-opacity="1"
     id="g436"
     transform="translate(297.76272,-7.3220339)">
    <g
       transform="translate(306.55203,74.765302)"
       id="g434">
      <g
         id="g432">
        <path
           d="M 12.296875,0 H 9.640625 L 8.671875,-2.953125 H 3.765625 L 2.796875,0 H 0.1875 L 4.625,-12.8125 h 3.25 z M 6.09375,-10.140625 4.4375,-5.078125 h 3.53125 l -1.65625,-5.0625 z m 0,0"
           id="path430" />
      </g>
    </g>
  </g>
  <g
     fill="#000000"
     fill-opacity="1"
     id="g444"
     transform="translate(297.76272,-7.3220339)">
    <g
       transform="translate(292.5882,99.652154)"
       id="g442">
      <g
         id="g440">
        <path
           d="M 5.34375,0.1875 C 4.0625,0.1875 3.046875,-0.078125 2.296875,-0.609375 1.546875,-1.148438 1.054688,-1.90625 0.828125,-2.875 L 2.75,-3.71875 2.953125,-3.6875 c 0.175781,0.5625 0.453125,0.992188 0.828125,1.28125 0.375,0.28125 0.882812,0.421875 1.53125,0.421875 0.664062,0 1.179688,-0.1875 1.546875,-0.5625 C 7.222656,-2.929688 7.40625,-3.5 7.40625,-4.25 7.40625,-5 7.222656,-5.566406 6.859375,-5.953125 6.503906,-6.335938 6.015625,-6.53125 5.390625,-6.53125 c -0.46875,0 -0.867187,0.105469 -1.1875,0.3125 -0.324219,0.199219 -0.59375,0.5 -0.8125,0.90625 L 1.296875,-5.46875 1.5625,-12.8125 h 7.625 v 2.125 h -5.5 L 3.5625,-7.421875 3.75,-7.375 c 0.300781,-0.394531 0.65625,-0.691406 1.0625,-0.890625 0.414062,-0.207031 0.921875,-0.3125 1.515625,-0.3125 0.726563,0 1.363281,0.167969 1.90625,0.5 0.550781,0.324219 0.972656,0.804687 1.265625,1.4375 0.300781,0.636719 0.453125,1.417969 0.453125,2.34375 0,0.9375 -0.183594,1.746094 -0.546875,2.421875 C 9.050781,-1.207031 8.523438,-0.695312 7.828125,-0.34375 7.140625,0.0078125 6.3125,0.1875 5.34375,0.1875 Z m 0,0"
           id="path438" />
      </g>
    </g>
  </g>
  <g
     fill="#000000"
     fill-opacity="1"
     id="g452"
     transform="translate(297.76272,-7.3220339)">
    <g
       transform="translate(303.38759,99.652154)"
       id="g450">
      <g
         id="g448">
        <path
           d="m 3.671875,-5.859375 c -0.9375,0 -1.679687,-0.289063 -2.21875,-0.875 -0.542969,-0.59375 -0.8125,-1.492187 -0.8125,-2.703125 0,-1.195312 0.269531,-2.085938 0.8125,-2.671875 C 1.992188,-12.703125 2.734375,-13 3.671875,-13 c 0.9375,0 1.671875,0.296875 2.203125,0.890625 0.539062,0.585937 0.8125,1.476563 0.8125,2.671875 0,1.210938 -0.273438,2.109375 -0.8125,2.703125 -0.53125,0.585937 -1.265625,0.875 -2.203125,0.875 z M 4.5625,0 H 2.421875 l -0.03125,-0.1875 8.5625,-12.625 H 13.09375 L 13.125,-12.625 Z M 3.671875,-7.515625 c 0.351563,0 0.617187,-0.140625 0.796875,-0.421875 0.175781,-0.28125 0.265625,-0.78125 0.265625,-1.5 0,-0.707031 -0.089844,-1.203125 -0.265625,-1.484375 -0.179688,-0.28125 -0.445312,-0.421875 -0.796875,-0.421875 -0.242187,0 -0.445313,0.05859 -0.609375,0.171875 -0.15625,0.117187 -0.277344,0.3125 -0.359375,0.59375 -0.074219,0.28125 -0.109375,0.664063 -0.109375,1.140625 0,0.492188 0.035156,0.875 0.109375,1.15625 C 2.785156,-8 2.90625,-7.800781 3.0625,-7.6875 c 0.15625,0.117188 0.359375,0.171875 0.609375,0.171875 z m 8.21875,7.703125 c -0.949219,0 -1.695313,-0.289062 -2.234375,-0.875 C 9.125,-1.28125 8.859375,-2.179688 8.859375,-3.390625 c 0,-1.195313 0.265625,-2.085937 0.796875,-2.671875 0.539062,-0.59375 1.285156,-0.890625 2.234375,-0.890625 0.9375,0 1.671875,0.296875 2.203125,0.890625 0.539062,0.585938 0.8125,1.476562 0.8125,2.671875 0,1.199219 -0.273438,2.09375 -0.8125,2.6875 C 13.5625,-0.109375 12.828125,0.1875 11.890625,0.1875 Z m 0,-1.671875 c 0.238281,0 0.4375,-0.054687 0.59375,-0.171875 0.15625,-0.113281 0.269531,-0.304688 0.34375,-0.578125 0.08203,-0.28125 0.125,-0.664063 0.125,-1.15625 0,-0.488281 -0.04297,-0.867187 -0.125,-1.140625 -0.07422,-0.28125 -0.1875,-0.476562 -0.34375,-0.59375 -0.15625,-0.113281 -0.355469,-0.171875 -0.59375,-0.171875 -0.25,0 -0.453125,0.058594 -0.609375,0.171875 -0.15625,0.117188 -0.277344,0.3125 -0.359375,0.59375 -0.07422,0.273438 -0.109375,0.652344 -0.109375,1.140625 0,0.492187 0.03516,0.875 0.109375,1.15625 0.08203,0.273437 0.203125,0.464844 0.359375,0.578125 0.15625,0.117188 0.359375,0.171875 0.609375,0.171875 z m 0,0"
           id="path446" />
      </g>
    </g>
  </g>
  <g
     clip-path="url(#507b748357)"
     id="g456"
     transform="translate(297.76272,-7.3220339)">
    <path
       fill="#6ce5e8"
       d="m 338.10937,115.84375 c 2.83594,0 5.67188,0.0703 8.50782,0.21094 2.83203,0.14453 5.66015,0.35547 8.48437,0.63672 2.82422,0.28515 5.63672,0.63672 8.44531,1.05859 2.80469,0.42188 5.59766,0.91406 8.37891,1.47656 2.78125,0.5625 5.54688,1.19532 8.29688,1.89453 2.74609,0.69922 5.47656,1.46875 8.1914,2.30469 2.71094,0.83594 5.39844,1.74219 8.06641,2.71094 2.66406,0.96875 5.30469,2.00781 7.91797,3.10937 2.61718,1.10157 5.19922,2.26953 7.75781,3.5 2.55469,1.23047 5.07812,2.52344 7.57031,3.88282 2.49219,1.35546 4.94922,2.77343 7.3711,4.2539 2.42187,1.48047 4.80468,3.01953 7.14843,4.61719 2.34375,1.59766 4.64453,3.25391 6.90625,4.96484 2.26172,1.71485 4.48047,3.48438 6.65625,5.3086 2.17188,1.82422 4.29688,3.69922 6.37891,5.6289 2.07812,1.92969 4.10937,3.91016 6.08984,5.94141 1.98047,2.03125 3.91016,4.11328 5.78907,6.23828 1.875,2.12891 3.69921,4.30078 5.46875,6.51953 1.76953,2.21875 3.48046,4.48047 5.13671,6.78516 1.65625,2.30078 3.25391,4.64453 4.79297,7.02734 1.53907,2.38672 3.01953,4.80469 4.4375,7.26172 1.41797,2.45703 2.77735,4.94922 4.07032,7.47266 1.29296,2.52734 2.52343,5.08203 3.6914,7.66797 1.16797,2.58593 2.26953,5.19921 3.30469,7.84375 1.03516,2.64062 2.00781,5.30468 2.91016,7.99609 0.90234,2.6875 1.73828,5.39844 2.50781,8.12891 0.76953,2.73046 1.46875,5.48046 2.09765,8.24609 0.63282,2.76562 1.19532,5.54687 1.6875,8.33984 0.49219,2.79688 0.91407,5.60157 1.26563,8.41797 0.35547,2.8125 0.63672,5.63672 0.84766,8.46485 0.21093,2.82812 0.35546,5.66406 0.42578,8.5 0.0703,2.83593 0.0703,5.67187 -0.004,8.50781 -0.0703,2.83594 -0.21094,5.67187 -0.42187,8.5 -0.21485,2.82812 -0.4961,5.65234 -0.84766,8.46484 -0.35547,2.81641 -0.77734,5.6211 -1.26953,8.41406 -0.49219,2.79688 -1.05469,5.57813 -1.6875,8.34375 -0.63281,2.76563 -1.33203,5.51172 -2.10156,8.2461 -0.76563,2.73047 -1.60157,5.4414 -2.50782,8.1289 -0.90234,2.69141 -1.875,5.35547 -2.91015,7.9961 -1.03907,2.64062 -2.14063,5.2539 -3.30469,7.83984 -1.16797,2.58594 -2.39844,5.14453 -3.69531,7.66797 -1.29297,2.52344 -2.65235,5.01563 -4.07032,7.47266 -1.41796,2.45703 -2.89843,4.8789 -4.4375,7.26172 -1.53906,2.38281 -3.13671,4.72656 -4.79296,7.02734 -1.65625,2.30469 -3.3711,4.56641 -5.14063,6.78516 -1.76953,2.21875 -3.58984,4.39062 -5.46875,6.51562 -1.87891,2.12891 -3.80859,4.20703 -5.78906,6.23828 -1.98047,2.03125 -4.01172,4.01172 -6.08985,5.94141 -2.08203,1.92969 -4.20703,3.80469 -6.38281,5.6289 -2.17187,1.82422 -4.39062,3.59375 -6.65234,5.30469 -2.26172,1.71485 -4.56641,3.3711 -6.91016,4.96875 -2.34375,1.59766 -4.72656,3.13672 -7.14844,4.61328 -2.42187,1.48047 -4.8789,2.89844 -7.37109,4.25391 -2.49219,1.35937 -5.01562,2.65234 -7.57031,3.88281 -2.5586,1.23047 -5.14453,2.39844 -7.75781,3.5 -2.61329,1.10156 -5.25391,2.13672 -7.92188,3.10547 -2.66406,0.97266 -5.35547,1.875 -8.06641,2.71094 -2.71093,0.83594 -5.4414,1.60156 -8.1914,2.30469 -2.75,0.69921 -5.51563,1.32812 -8.29688,1.89062 -2.78125,0.5625 -5.57422,1.05469 -8.3789,1.47656 -2.80469,0.42188 -5.6211,0.77344 -8.44532,1.0586 -2.82031,0.28125 -5.65234,0.49218 -8.48437,0.63281 -2.83203,0.14062 -5.66797,0.21094 -8.50781,0.21094 -2.83594,0 -5.67188,-0.0703 -8.50391,-0.21094 l 8.52734,-170.44141 z m 0,0"
       fill-opacity="1"
       fill-rule="nonzero"
       id="path454" />
  </g>
  <g
     clip-path="url(#8d8246bc87)"
     id="g460"
     transform="translate(297.76272,-7.3220339)">
    <path
       fill="#41b8d5"
       d="m 338.10937,457.14844 c -4,0 -7.99609,-0.14063 -11.98437,-0.42188 -3.98828,-0.28125 -7.96484,-0.69922 -11.92578,-1.26172 -3.96094,-0.55859 -7.89453,-1.25781 -11.80469,-2.09375 -3.91406,-0.83984 -7.78906,-1.8125 -11.63281,-2.92187 -3.84375,-1.10938 -7.64063,-2.35156 -11.39844,-3.73047 -3.75391,-1.375 -7.45703,-2.88281 -11.10547,-4.51953 -3.64844,-1.63672 -7.23828,-3.40235 -10.76172,-5.28906 -3.52734,-1.89063 -6.98047,-3.90235 -10.36328,-6.03516 -3.38672,-2.13281 -6.6914,-4.37891 -9.91406,-6.74609 -3.22656,-2.36329 -6.36719,-4.83985 -9.41797,-7.42188 -3.05078,-2.58594 -6.00781,-5.27734 -8.87109,-8.07031 -2.86328,-2.79297 -5.625,-5.6836 -8.28516,-8.67188 -2.66016,-2.98437 -5.21094,-6.0625 -7.65234,-9.23047 -2.44532,-3.16796 -4.77344,-6.41406 -6.98828,-9.74609 -2.21485,-3.33203 -4.3086,-6.73437 -6.28516,-10.21484 -1.97266,-3.47657 -3.82422,-7.01953 -5.55078,-10.62891 -1.72656,-3.60547 -3.32422,-7.26953 -4.79297,-10.99219 -1.46875,-3.71875 -2.80469,-7.48828 -4.00781,-11.30078 -1.20313,-3.8164 -2.27344,-7.66797 -3.20313,-11.55469 -0.93359,-3.89062 -1.73047,-7.80859 -2.38672,-11.7539 -0.65625,-3.94531 -1.17578,-7.91016 -1.55468,-11.89063 -0.37891,-3.98047 -0.61719,-7.97265 -0.71485,-11.96875 -0.0977,-4 -0.0547,-7.99609 0.12891,-11.99218 0.18359,-3.9961 0.5039,-7.98047 0.96875,-11.95313 0.46094,-3.97266 1.0625,-7.92578 1.80469,-11.85547 0.74218,-3.92969 1.62109,-7.82812 2.63281,-11.69922 1.01562,-3.86718 2.16797,-7.69531 3.44922,-11.48437 1.28515,-3.78906 2.70312,-7.52735 4.25,-11.21485 1.54687,-3.6875 3.22265,-7.3164 5.02343,-10.88671 1.80079,-3.57032 3.72657,-7.07422 5.77735,-10.51172 2.04687,-3.4336 4.21484,-6.79297 6.5,-10.07422 2.28515,-3.28516 4.68359,-6.48438 7.1914,-9.59766 l 132.875,107.08203 z m 0,0"
       fill-opacity="1"
       fill-rule="nonzero"
       id="path458" />
  </g>
  <path
     fill="#2d8bba"
     d="m 497.80959,178.86938 c 2.83985,-3.90625 5.83594,-7.6836 8.99219,-11.33204 3.15625,-3.65234 6.46485,-7.16015 9.91797,-10.53125 3.45703,-3.37109 7.04688,-6.58593 10.77344,-9.65234 3.73047,-3.06641 7.58203,-5.96484 11.55469,-8.70312 3.97265,-2.73829 8.05859,-5.30469 12.25,-7.69532 4.1914,-2.39453 8.47656,-4.60156 12.85546,-6.63281 4.37891,-2.02734 8.83594,-3.86719 13.3711,-5.51562 4.53515,-1.64844 9.13281,-3.10547 13.78906,-4.36719 l 44.55859,164.73437 z m 0,0"
     fill-opacity="1"
     fill-rule="nonzero"
     id="path462" />
  <g
     clip-path="url(#767b29310b)"
     id="g466"
     transform="translate(297.76272,-7.3220339)">
    <path
       fill="#2f5f98"
       d="m 285.375,124.19531 c 17.14453,-5.5664 34.71484,-8.35156 52.71875,-8.35156 l 0.0156,170.65234 z m 0,0"
       fill-opacity="1"
       fill-rule="nonzero"
       id="path464" />
  </g>
  <g
     clip-path="url(#eccb209c56)"
     id="g470"
     transform="translate(297.76272,-7.3220339)">
    <path
       fill="#31356e"
       d="m 338.10937,115.84375 c -0.004,0 0,0 0.0156,0 l -0.0156,170.65234 z m 0,0"
       fill-opacity="1"
       fill-rule="nonzero"
       id="path468" />
  </g>
</svg>
